<?xml version="1.0" standalone="no"?>
<!DOCTYPE svg PUBLIC "-//W3C//DTD SVG 1.1//EN" "http://www.w3.org/Graphics/SVG/1.1/DTD/svg11.dtd" >
<svg>
<metadata>
Created by FontForge 20090622 at Mon Aug 31 14:06:03 2015
 By deploy user
2007 Ole Schaefer published by FSI FontShop International GmbH
</metadata>
<defs>
<font id="ZineSlabDisplayOT" horiz-adv-x="1" >
  <font-face 
    font-family="ZineSlabDisplayOT"
    font-weight="400"
    font-stretch="normal"
    units-per-em="1000"
    panose-1="2 1 5 4 3 1 1 2 1 2"
    ascent="775"
    descent="-225"
    x-height="470"
    cap-height="667"
    bbox="-466 -230 1042 899"
    underline-thickness="75"
    underline-position="-118"
    unicode-range="U+000D-U+1F4C4"
  />
<missing-glyph horiz-adv-x="526" 
d="M20 0v667h486v-667h-486zM95 75h336v517h-336v-517z" />
    <glyph glyph-name="f_i" unicode="fi" horiz-adv-x="526" 
d="M506 3q-31 -13 -66 -13q-89 0 -89 90v325h-176v-340h80v-65h-235v65h70v340h-70v65h70v107q0 130 120 130q39 0 97 -20v-125h-65v73q-12 2 -27 2q-18 0 -29 -14.5t-11 -43.5v-109h261v-382q0 -28 28 -28q16 0 42 9v-66zM436 582h-85v85h85v-85z" />
    <glyph glyph-name="f_l" unicode="fl" horiz-adv-x="526" 
d="M307 562h-65v73q-12 2 -27 2q-18 0 -29 -14.5t-11 -43.5v-109h80v-65h-80v-340h80v-65h-235v65h70v340h-70v65h70v107q0 130 120 130q42 0 97 -20v-125zM506 3q-31 -13 -66 -13q-89 0 -89 90v617h85v-609q0 -28 28 -28q16 0 42 9v-66z" />
    <glyph glyph-name=".notdef" horiz-adv-x="526" 
d="M20 0v667h486v-667h-486zM95 75h336v517h-336v-517z" />
    <glyph glyph-name=".null" horiz-adv-x="0" 
 />
    <glyph glyph-name="nonmarkingreturn" horiz-adv-x="333" 
 />
    <glyph glyph-name="CR" unicode="&#xd;" horiz-adv-x="270" 
 />
    <glyph glyph-name="space" unicode=" " horiz-adv-x="270" 
 />
    <glyph glyph-name="exclam" unicode="!" horiz-adv-x="260" 
d="M180 470l-10 -273h-80l-10 273v197h100v-197zM180 0h-100v100h100v-100z" />
    <glyph glyph-name="quotedbl" unicode="&#x22;" horiz-adv-x="360" 
d="M300 456h-90v181h90v-181zM150 456h-90v181h90v-181z" />
    <glyph glyph-name="numbersign" unicode="#" horiz-adv-x="580" 
d="M530 197h-90v-197h-90v197h-120v-197h-90v197h-90v75h90v123h-90v75h90v197h90v-197h120v197h90v-197h90v-75h-90v-123h90v-75zM350 272v123h-120v-123h120z" />
    <glyph glyph-name="dollar" unicode="$" horiz-adv-x="464" 
d="M424 165q0 -151 -147 -172v-109h-85v108q-66 6 -152 39v150h65v-87q74 -27 121 -27q103 0 103 91q0 43 -21.5 69t-60.5 44l-69 31q-60 27 -96 64.5t-36 104.5q0 74 40 117.5t106 54.5v110h85v-108q66 -6 141 -31v-154h-65v91q-67 20 -111 20q-43 0 -72 -22.5t-29 -63.5
q0 -39 19.5 -60t58.5 -40l67 -32q65 -31 101.5 -72t36.5 -116z" />
    <glyph glyph-name="percent" unicode="%" horiz-adv-x="755" 
d="M716 166q0 -84 -38 -130t-105 -46t-105 46t-38 130t38 130t105 46t105 -46t38 -130zM326 471q0 -84 -38 -130t-105 -46t-105 46t-38 130t38 130t105 46t105 -46t38 -130zM559 627l-281 -637l-82 20l281 637zM236 471q0 59 -12.5 86t-40.5 27t-40.5 -27t-12.5 -86
t12.5 -85t40.5 -26t40.5 26t12.5 85zM626 166q0 59 -12.5 86t-40.5 27t-40.5 -27t-12.5 -86t12.5 -85t40.5 -26t40.5 26t12.5 85z" />
    <glyph glyph-name="ampersand" unicode="&#x26;" horiz-adv-x="587" 
d="M537 42l-64 -52l-67 75q-71 -75 -170 -75q-86 0 -136 44t-50 127q0 120 112 177q-67 67 -67 148q0 76 44 118.5t122 42.5q70 0 114 -41.5t44 -111.5q0 -111 -127 -170l117 -134q25 71 30 154h80q-5 -127 -58 -214zM361 117l-155 175q-61 -43 -61 -118q0 -47 25 -80
t68 -33q71 0 123 56zM334 492q0 42 -19.5 63.5t-53.5 21.5q-37 0 -59 -23t-22 -66q0 -25 11 -47.5t23.5 -36t36.5 -34.5q83 44 83 122z" />
    <glyph glyph-name="quotesingle" unicode="'" horiz-adv-x="210" 
d="M150 456h-90v181h90v-181z" />
    <glyph glyph-name="parenleft" unicode="(" horiz-adv-x="288" 
d="M258 -57l-59 -26q-149 178 -149 414q0 237 149 415l59 -26q-28 -58 -46 -99.5t-40 -127t-22 -161.5q0 -60 10.5 -119t31.5 -115t32.5 -83.5t33.5 -71.5z" />
    <glyph glyph-name="parenright" unicode=")" horiz-adv-x="288" 
d="M238 331q0 -236 -149 -414l-59 26q22 44 33.5 71.5t32.5 83.5t31.5 115t10.5 119q0 76 -22 161.5t-40 127t-46 99.5l59 26q149 -178 149 -415z" />
    <glyph glyph-name="asterisk" unicode="*" horiz-adv-x="385" 
d="M338 469l-32 -55l-82 47v-94h-64v94l-82 -47l-32 55l82 47l-82 48l32 55l82 -47v95h64v-95l82 47l32 -55l-82 -48z" />
    <glyph glyph-name="plus" unicode="+" horiz-adv-x="481" 
d="M199 117v150h-139v80h139v149h84v-149h138v-80h-138v-150h-84z" />
    <glyph glyph-name="comma" unicode="," horiz-adv-x="240" 
d="M170 10l-30 -130l-63 10l19 110h-26v100h100v-90z" />
    <glyph glyph-name="hyphen" unicode="-" horiz-adv-x="257" 
d="M227 262h-197v75h197v-75z" />
    <glyph glyph-name="period" unicode="." horiz-adv-x="240" 
d="M170 0h-100v100h100v-100z" />
    <glyph glyph-name="slash" unicode="/" horiz-adv-x="316" 
d="M285 662l-178 -672l-76 15l178 672z" />
    <glyph glyph-name="zero" unicode="0" horiz-adv-x="518" 
d="M468 319q0 -329 -209 -329t-209 329q0 328 209 328t209 -328zM373 319q0 255 -114 255t-114 -255q0 -256 114 -256t114 256z" />
    <glyph glyph-name="one" unicode="1" horiz-adv-x="300" 
d="M280 0h-250v65h80v473l-85 -20l-5 56l128 63h52v-572h80v-65z" />
    <glyph glyph-name="two" unicode="2" horiz-adv-x="461" 
d="M411 0h-350q0 101 28.5 161.5t80.5 109.5l67 62q25 23 39 39t26.5 44.5t12.5 61.5q0 46 -27 70.5t-73 24.5q-52 0 -100 -17v-66h-65v119q93 38 168 38q87 0 139.5 -40.5t52.5 -128.5q0 -36 -9 -67t-27.5 -57t-33 -41.5t-38.5 -37.5l-64 -59q-72 -68 -80 -141h188v86h65
v-161z" />
    <glyph glyph-name="three" unicode="3" horiz-adv-x="451" 
d="M401 173q0 -51 -17.5 -88.5t-47 -57t-62 -28.5t-69.5 -9q-79 0 -155 29v142h65v-88q45 -12 90 -12q44 0 72.5 28.5t28.5 89.5q0 121 -127 121h-39v70h39q51 0 84 29t33 81q0 46 -23 71t-62 25q-38 0 -96 -17v-69h-65v122q1 1 15.5 6t19.5 6.5t19.5 6.5t24 6.5t24 4.5
t29 4t30.5 1q80 0 129.5 -36.5t49.5 -120.5q0 -105 -101 -150q111 -37 111 -167z" />
    <glyph glyph-name="four" unicode="4" horiz-adv-x="480" 
d="M460 130h-70v-130h-90v130h-260v75l250 432h100v-432h70v-75zM300 205v305l-172 -305h172z" />
    <glyph glyph-name="five" unicode="5" horiz-adv-x="465" 
d="M415 196q0 -110 -55 -158t-143 -48q-63 0 -147 29v142h65v-88q39 -13 82 -13q46 0 74.5 32.5t28.5 103.5q0 136 -90 136q-55 0 -103 -46l-44 14l10 337h318v-147h-65v72h-165l-7 -182q32 22 76 22q69 0 117 -47.5t48 -158.5z" />
    <glyph glyph-name="six" unicode="6" horiz-adv-x="500" 
d="M450 198q0 -105 -55 -156.5t-144 -51.5q-201 0 -201 294q0 173 61 268t169 95q70 0 130 -26v-131h-65v78q-27 9 -67 9q-51 0 -87 -57.5t-42 -158.5q52 50 129 50q72 0 122 -52t50 -161zM355 199q0 142 -98 142q-53 0 -112 -50v-21q0 -210 107 -210q103 0 103 139z" />
    <glyph glyph-name="seven" unicode="7" horiz-adv-x="402" 
d="M382 562l-170 -562h-95l179 562h-211v-72h-65v147h362v-75z" />
    <glyph glyph-name="eight" unicode="8" horiz-adv-x="510" 
d="M460 169q0 -87 -52.5 -133t-151.5 -46q-100 0 -153 45.5t-53 132.5q0 112 115 164q-95 54 -95 155q0 76 50 118t138 42q82 0 132 -41.5t50 -113.5q0 -61 -27.5 -94t-72.5 -57q120 -58 120 -172zM365 166q0 48 -32 75t-100 56q-88 -49 -88 -129q0 -50 29.5 -77.5
t82.5 -27.5q51 0 79.5 25.5t28.5 77.5zM345 490q0 84 -89 84q-43 0 -67 -21.5t-24 -62.5t26.5 -65t80.5 -50q73 45 73 115z" />
    <glyph glyph-name="nine" unicode="9" horiz-adv-x="503" 
d="M453 319q0 -172 -51 -250.5t-161 -78.5q-63 0 -131 22v149h65v-91q29 -8 61 -8q120 0 120 228v9q-52 -52 -128 -52t-127 47.5t-51 141.5q0 95 52 153t145 58q206 0 206 -328zM358 370q0 98 -30 152.5t-82 54.5q-50 0 -75.5 -36.5t-25.5 -98.5q0 -125 89 -125q59 0 124 53
z" />
    <glyph glyph-name="colon" unicode=":" horiz-adv-x="240" 
d="M170 370h-100v100h100v-100zM170 0h-100v100h100v-100z" />
    <glyph glyph-name="semicolon" unicode=";" horiz-adv-x="240" 
d="M170 10l-30 -130l-63 10l19 110h-26v100h100v-90zM170 370h-100v100h100v-100z" />
    <glyph glyph-name="less" unicode="&#x3c;" horiz-adv-x="481" 
d="M386 105l-326 172v70l326 190l35 -69l-271 -154l271 -137z" />
    <glyph glyph-name="equal" unicode="=" horiz-adv-x="471" 
d="M60 357v80h351v-80h-351zM60 197v80h351v-80h-351z" />
    <glyph glyph-name="greater" unicode="&#x3e;" horiz-adv-x="481" 
d="M421 277l-326 -172l-35 72l271 137l-271 154l35 69l326 -190v-70z" />
    <glyph glyph-name="question" unicode="?" horiz-adv-x="423" 
d="M373 522q0 -40 -11 -72t-24 -49.5t-38 -44.5q-29 -31 -42.5 -54.5t-13.5 -53.5q0 -28 2 -51h-90q-2 24 -2 53q0 36 11.5 67t22.5 46t31 38q28 31 41 56t13 58q0 42 -21 64t-59 22q-33 0 -78 -14v-77h-65v135q81 32 150 32q77 0 125 -39t48 -116zM251 0h-100v100h100v-100
z" />
    <glyph glyph-name="at" unicode="@" horiz-adv-x="909" 
d="M859 274q0 -77 -19 -135.5t-51 -91t-68 -48t-75 -15.5q-63 0 -92 33.5t-29 85.5v11q-55 -130 -157 -130q-57 0 -90.5 43t-33.5 126q0 127 64.5 220t160.5 93q61 0 112 -43l67 9l-48 -274q-4 -19 -4 -38q0 -66 52 -66q46 0 81 49t35 161q0 136 -79.5 219.5t-207.5 83.5
q-144 0 -235.5 -100t-91.5 -273q0 -324 360 -324q20 0 62 2v-70q-38 -3 -72 -3q-230 0 -340 104.5t-110 290.5q0 203 122.5 328t309.5 125q167 0 272 -105.5t105 -267.5zM551 370q-33 30 -78 30q-55 0 -97 -71.5t-42 -168.5q0 -107 51 -107q48 0 93 70.5t58 154.5z" />
    <glyph glyph-name="A" unicode="A" horiz-adv-x="621" 
d="M601 0h-135l-54 192h-204l-35 -127h67v-65h-220v65h59l156 537h-67v65h198l176 -602h59v-65zM393 267l-84 314l-83 -314h167z" />
    <glyph glyph-name="B" unicode="B" horiz-adv-x="527" 
d="M477 187q0 -101 -55.5 -144t-159.5 -43h-242v65h70v537h-70v65h241q94 0 147.5 -41t53.5 -125q0 -124 -113 -155q128 -28 128 -159zM382 189q0 65 -35 90t-95 25h-72v-232h71q65 0 98 24t33 93zM367 489q0 106 -116 106h-71v-215h71q50 0 83 26t33 83z" />
    <glyph glyph-name="C" unicode="C" horiz-adv-x="521" 
d="M481 34q-88 -44 -185 -44q-35 0 -67 9t-65.5 33.5t-58 62t-40 99t-15.5 139.5q0 93 23 162.5t62 107.5t83 56t93 18q85 0 170 -37v-150h-65v92q-51 19 -100 19q-69 0 -120 -65.5t-51 -202.5q0 -133 46 -199t112 -66q60 0 113 24v89h65v-147z" />
    <glyph glyph-name="D" unicode="D" horiz-adv-x="605" 
d="M555 333q0 -333 -312 -333h-223v65h70v537h-70v65h240q135 0 215 -78.5t80 -255.5zM460 333q0 259 -206 259h-74v-517h60q116 0 168 63.5t52 194.5z" />
    <glyph glyph-name="E" unicode="E" horiz-adv-x="514" 
d="M464 0h-444v65h70v537h-70v65h444v-177h-65v102h-219v-215h201v-75h-201v-227h219v106h65v-181z" />
    <glyph glyph-name="F" unicode="F" horiz-adv-x="514" 
d="M464 490h-65v102h-219v-215h221v-75h-221v-237h95v-65h-255v65h70v537h-70v65h444v-177z" />
    <glyph glyph-name="G" unicode="G" horiz-adv-x="598" 
d="M518 0h-90v39q-58 -49 -142 -49q-43 0 -81.5 15.5t-75 51.5t-58 106t-21.5 167q0 96 26 167t68.5 108.5t88 54.5t94.5 17q24 0 47 -2.5t39 -5.5t33.5 -8.5t26 -8.5t21 -8.5t14.5 -6.5v-147h-65v88q-64 23 -119 23q-30 0 -59 -13t-57 -41.5t-45.5 -84t-17.5 -129.5
q0 -138 43.5 -201.5t114.5 -63.5q62 0 125 40v194h-121v75h211v-377z" />
    <glyph glyph-name="H" unicode="H" horiz-adv-x="616" 
d="M596 0h-235v65h75v237h-256v-237h75v-65h-235v65h70v537h-70v65h235v-65h-75v-225h256v225h-75v65h235v-65h-70v-537h70v-65z" />
    <glyph glyph-name="I" unicode="I" horiz-adv-x="270" 
d="M250 0h-230v65h70v537h-70v65h230v-65h-70v-537h70v-65z" />
    <glyph glyph-name="J" unicode="J" horiz-adv-x="270" 
d="M190 118q0 -90 -32 -136t-113 -72l-25 53q43 29 61.5 61.5t18.5 93.5v484h-70v65h160v-549z" />
    <glyph glyph-name="K" unicode="K" horiz-adv-x="545" 
d="M255 0h-235v65h70v537h-70v65h235v-65h-75v-537h75v-65zM525 0h-119l-204 345l206 322h117v-65h-59l-163 -252l167 -285h55v-65z" />
    <glyph glyph-name="L" unicode="L" horiz-adv-x="430" 
d="M410 0h-390v65h70v537h-70v65h250v-65h-90v-527h165v106h65v-181z" />
    <glyph glyph-name="M" unicode="M" horiz-adv-x="765" 
d="M745 0h-235v65h75v431l-170 -496h-65l-170 496v-431h75v-65h-235v65h70v537h-70v65h193l170 -502l169 502h193v-65h-70v-537h70v-65z" />
    <glyph glyph-name="N" unicode="N" horiz-adv-x="636" 
d="M616 602h-70v-602h-90l-276 523v-458h75v-65h-235v65h70v537h-70v65h180l256 -486v421h-75v65h235v-65z" />
    <glyph glyph-name="O" unicode="O" horiz-adv-x="636" 
d="M586 333q0 -166 -73.5 -254.5t-194.5 -88.5t-194.5 89t-73.5 254t74.5 254.5t193.5 89.5q120 0 194 -89.5t74 -254.5zM491 333q0 133 -48.5 201t-124.5 68t-124.5 -68t-48.5 -201t48.5 -199.5t124.5 -66.5q75 0 124 66.5t49 199.5z" />
    <glyph glyph-name="P" unicode="P" horiz-adv-x="509" 
d="M459 469q0 -55 -18 -95t-49.5 -61.5t-67.5 -31t-79 -9.5h-65v-207h90v-65h-250v65h70v537h-70v65h225q43 0 79.5 -10t67.5 -31.5t49 -61.5t18 -95zM364 471q0 124 -118 124h-66v-251h65q119 0 119 127z" />
    <glyph glyph-name="Q" unicode="Q" horiz-adv-x="636" 
d="M586 333q0 -149 -60.5 -236.5t-162.5 -103.5v-163h-90v163q-102 16 -162.5 103.5t-60.5 236.5q0 165 74.5 254.5t193.5 89.5q120 0 194 -89.5t74 -254.5zM491 333q0 133 -48.5 201t-124.5 68t-124.5 -68t-48.5 -201q0 -113 35 -179t93 -84v127h90v-127q57 18 92.5 84.5
t35.5 178.5z" />
    <glyph glyph-name="R" unicode="R" horiz-adv-x="535" 
d="M515 0h-130l-141 272h-64v-207h75v-65h-235v65h70v537h-70v65h225q59 0 104.5 -17t77.5 -63t32 -118q0 -74 -35 -118.5t-88 -63.5l119 -222h60v-65zM364 471q0 63 -31.5 93.5t-86.5 30.5h-66v-251h65q119 0 119 127z" />
    <glyph glyph-name="S" unicode="S" horiz-adv-x="474" 
d="M434 170q0 -93 -55.5 -136.5t-144.5 -43.5q-24 0 -46.5 2.5t-37 4.5t-35 8l-27 8t-27 10t-21.5 8v150h65v-87q78 -27 129 -27q47 0 76 25.5t29 75.5q0 49 -25.5 74.5t-72.5 45.5l-50 22q-65 28 -105 70t-40 116q0 90 56 135.5t145 45.5t181 -33v-154h-65v92
q-64 19 -116 19q-47 0 -76.5 -24t-29.5 -70q0 -44 24 -68.5t69 -44.5l46 -21q27 -12 43 -20.5t40 -26.5t37.5 -37.5t23.5 -50.5t10 -68z" />
    <glyph glyph-name="T" unicode="T" horiz-adv-x="508" 
d="M488 510h-65v77h-124v-522h90v-65h-270v65h90v522h-124v-77h-65v157h468v-157z" />
    <glyph glyph-name="U" unicode="U" horiz-adv-x="620" 
d="M600 602h-70v-378q0 -119 -57.5 -176.5t-162.5 -57.5q-103 0 -161.5 58t-58.5 176v378h-70v65h235v-65h-75v-374q0 -80 35.5 -119.5t94.5 -39.5t94.5 39t35.5 119v375h-75v65h235v-65z" />
    <glyph glyph-name="V" unicode="V" horiz-adv-x="605" 
d="M585 602h-59l-171 -602h-105l-171 602h-59v65h220v-65h-67l131 -492l129 492h-67v65h219v-65z" />
    <glyph glyph-name="W" unicode="W" horiz-adv-x="913" 
d="M893 602h-60l-140 -602h-105l-131 518l-132 -518h-105l-140 602h-60v65h220v-65h-67l103 -492l121 492h-60v65h241v-65h-60l122 -492l99 492h-67v65h221v-65z" />
    <glyph glyph-name="X" unicode="X" horiz-adv-x="572" 
d="M552 0h-220v65h65l-104 218l-148 -283h-125v65h57l150 270l-147 267h-60v65h220v-65h-58l107 -194l139 259h124v-65h-59l-139 -242l145 -295h53v-65z" />
    <glyph glyph-name="Y" unicode="Y" horiz-adv-x="544" 
d="M524 602h-59l-152 -342v-195h90v-65h-270v65h90v195l-144 342h-59v65h213v-65h-57l95 -243l99 243h-57v65h211v-65z" />
    <glyph glyph-name="Z" unicode="Z" horiz-adv-x="496" 
d="M466 667l-299 -592h211v86h65v-161h-413l300 592h-212v-82h-65v157h413z" />
    <glyph glyph-name="bracketleft" unicode="[" horiz-adv-x="304" 
d="M284 -82h-204v829h204v-60h-114v-709h114v-60z" />
    <glyph glyph-name="backslash" unicode="\" horiz-adv-x="316" 
d="M285 5l-76 -15l-178 672l76 15z" />
    <glyph glyph-name="bracketright" unicode="]" horiz-adv-x="304" 
d="M224 -82h-204v60h114v709h-114v60h204v-829z" />
    <glyph glyph-name="asciicircum" unicode="^" horiz-adv-x="461" 
d="M401 417h-100l-72 161l-69 -161h-100l126 250h90z" />
    <glyph glyph-name="underscore" unicode="_" horiz-adv-x="397" 
d="M397 -230h-397v75h397v-75z" />
    <glyph glyph-name="grave" unicode="`" horiz-adv-x="214" 
d="M184 571h-85l-69 126h100z" />
    <glyph glyph-name="a" unicode="a" horiz-adv-x="475" 
d="M455 3q-26 -13 -66 -13q-66 0 -80 55q-51 -55 -128 -55q-59 0 -100 32.5t-41 107.5q0 80 50 117.5t135 37.5h75v30q0 50 -18 70t-61 20q-34 0 -83 -14v-74h-65v129q102 34 166 34q146 0 146 -155v-237q0 -28 28 -28q15 0 42 9v-66zM300 110v117h-73q-97 0 -97 -86
q0 -81 69 -81q44 0 101 50z" />
    <glyph glyph-name="b" unicode="b" horiz-adv-x="516" 
d="M466 242q0 -252 -179 -252q-65 0 -120 46l-17 -36h-60v632h-70v65h155v-268q53 51 123 51q74 0 121 -57.5t47 -180.5zM376 243q0 162 -100 162q-51 0 -101 -50v-249q54 -41 106 -41q95 0 95 178z" />
    <glyph glyph-name="c" unicode="c" horiz-adv-x="425" 
d="M385 30q-69 -40 -141 -40q-35 0 -66 10t-61.5 34.5t-48.5 74.5t-18 121q0 128 59 189t141 61q72 0 135 -36v-127h-65v80q-34 13 -66 13q-44 0 -79 -43.5t-35 -133.5q0 -92 30.5 -131.5t75.5 -39.5q34 0 74 18v86h65v-136z" />
    <glyph glyph-name="d" unicode="d" horiz-adv-x="516" 
d="M496 3q-34 -13 -66 -13q-67 0 -81 57q-59 -57 -131 -57q-76 0 -122 59t-46 188q0 126 51.5 184.5t122.5 58.5q70 0 117 -47v199h-80v65h165v-609q0 -28 28 -28q15 0 42 9v-66zM341 119v242q-50 44 -98 44q-103 0 -103 -167q0 -103 25 -138t69 -35q50 0 107 54z" />
    <glyph glyph-name="e" unicode="e" horiz-adv-x="462" 
d="M412 205h-271q4 -66 32.5 -104t72.5 -38q51 0 128 47l31 -58q-77 -62 -160 -62q-86 0 -140.5 57.5t-54.5 185.5q0 119 51.5 183t133.5 64q90 0 133.5 -67.5t43.5 -207.5zM321 268q0 66 -21.5 105t-64.5 39q-85 0 -94 -144h180z" />
    <glyph glyph-name="f" unicode="f" horiz-adv-x="317" 
d="M307 562h-65v73q-12 2 -27 2q-18 0 -29 -14.5t-11 -43.5v-109h80v-65h-80v-340h80v-65h-235v65h70v340h-70v65h70v107q0 130 120 130q42 0 97 -20v-125z" />
    <glyph glyph-name="g" unicode="g" horiz-adv-x="434" 
d="M414 -59q0 -151 -199 -151q-87 0 -138.5 32t-51.5 98q0 43 20.5 71t45.5 41q-39 21 -39 67q0 52 55 86q-65 40 -65 135q0 79 44.5 119.5t123.5 40.5q23 0 50 -5t39 -5h115v-65h-63q27 -29 27 -85q0 -79 -44.5 -119.5t-123.5 -40.5q-23 0 -50 5q-26 -13 -26 -39
q0 -31 40 -34l92 -8q71 -6 109.5 -38t38.5 -105zM334 -66q0 37 -20.5 52t-61.5 18l-108 10q-39 -37 -39 -85q0 -77 113 -77q53 0 84.5 20.5t31.5 61.5zM295 320q0 49 -24 73t-61 24q-38 0 -61.5 -23.5t-23.5 -73.5q0 -51 23.5 -74t61.5 -23t61.5 23.5t23.5 73.5z" />
    <glyph glyph-name="h" unicode="h" horiz-adv-x="526" 
d="M506 3q-31 -13 -66 -13q-89 0 -89 90v245q0 39 -12 57t-40 18q-47 0 -124 -67v-268h75v-65h-230v65h70v567h-70v65h155v-293q69 76 146 76q115 0 115 -132v-260q0 -28 28 -28q15 0 42 9v-66z" />
    <glyph glyph-name="i" unicode="i" horiz-adv-x="265" 
d="M245 3q-31 -13 -66 -13q-89 0 -89 90v325h-70v65h155v-382q0 -28 28 -28q15 0 42 9v-66zM175 582h-85v85h85v-85z" />
    <glyph glyph-name="j" unicode="j" horiz-adv-x="270" 
d="M175 28q0 -107 -30.5 -160t-109.5 -78l-25 53q44 30 62 66.5t18 118.5v377h-70v65h155v-442zM175 582h-85v85h85v-85z" />
    <glyph glyph-name="k" unicode="k" horiz-adv-x="502" 
d="M250 0h-230v65h70v567h-70v65h155v-632h75v-65zM482 0h-118l-162 246l125 159h-60v65h215v-65h-61l-123 -155l122 -185h62v-65z" />
    <glyph glyph-name="l" unicode="l" horiz-adv-x="265" 
d="M245 3q-31 -13 -66 -13q-89 0 -89 90v552h-70v65h155v-609q0 -28 28 -28q13 0 42 9v-66z" />
    <glyph glyph-name="m" unicode="m" horiz-adv-x="787" 
d="M767 3q-31 -13 -66 -13q-89 0 -89 90v245q0 39 -12 57t-40 18q-44 0 -124 -69v-266h75v-65h-160v325q0 39 -12 57t-40 18q-47 0 -124 -67v-268h75v-65h-230v65h70v340h-70v65h155v-66q69 76 146 76q90 0 110 -83q71 83 151 83q115 0 115 -132v-260q0 -28 28 -28
q13 0 42 9v-66z" />
    <glyph glyph-name="n" unicode="n" horiz-adv-x="526" 
d="M506 3q-31 -13 -66 -13q-89 0 -89 90v245q0 39 -12 57t-40 18q-47 0 -124 -67v-268h75v-65h-230v65h70v340h-70v65h155v-66q69 76 146 76q115 0 115 -132v-260q0 -28 28 -28q15 0 42 9v-66z" />
    <glyph glyph-name="o" unicode="o" horiz-adv-x="502" 
d="M452 235q0 -124 -55.5 -184.5t-145.5 -60.5q-89 0 -145 60.5t-56 184.5q0 125 56 185t145 60t145 -60.5t56 -184.5zM362 235q0 90 -30.5 132.5t-80.5 42.5t-80.5 -42t-30.5 -133q0 -90 30.5 -132t80.5 -42q111 0 111 174z" />
    <glyph glyph-name="p" unicode="p" horiz-adv-x="516" 
d="M466 242q0 -252 -179 -252q-62 0 -112 40v-165h105v-65h-260v65h70v540h-70v65h155v-41q51 51 123 51q74 0 121 -57.5t47 -180.5zM376 243q0 93 -27 127.5t-73 34.5q-45 0 -101 -51v-252q57 -37 106 -37q44 0 69.5 38t25.5 140z" />
    <glyph glyph-name="q" unicode="q" horiz-adv-x="516" 
d="M496 -200h-260v65h105v182q-54 -57 -123 -57q-76 0 -122 59t-46 188q0 126 51.5 184.5t122.5 58.5q74 0 117 -47v37h155v-65h-70v-540h70v-65zM341 120v240q-53 45 -98 45q-103 0 -103 -167q0 -103 25 -138t69 -35q46 0 107 55z" />
    <glyph glyph-name="r" unicode="r" horiz-adv-x="341" 
d="M321 399q-79 0 -146 -83v-251h105v-65h-260v65h70v340h-70v65h155v-76q50 86 146 86v-81z" />
    <glyph glyph-name="s" unicode="s" horiz-adv-x="393" 
d="M353 128q0 -72 -43 -105t-113 -33q-84 0 -156 30v146h65v-91q40 -16 85 -16q74 0 74 66q0 31 -16.5 47t-49.5 25l-48 13q-22 6 -38.5 13.5t-34.5 22t-28 39t-10 57.5q0 72 46.5 105t112.5 33q65 0 143 -25v-138h-65v84q-43 10 -77 10q-32 0 -52 -15t-20 -45
q0 -28 14.5 -42t44.5 -22l47 -13q119 -34 119 -146z" />
    <glyph glyph-name="t" unicode="t" horiz-adv-x="270" 
d="M250 5q-34 -15 -71 -15q-89 0 -89 90v325h-70v65h70l10 130h75v-130h75v-65h-75v-317q0 -28 28 -28q17 0 47 10v-65z" />
    <glyph glyph-name="u" unicode="u" horiz-adv-x="526" 
d="M506 3q-31 -13 -66 -13q-75 0 -83 72q-68 -72 -147 -72q-120 0 -120 136v279h-70v65h155v-327q0 -39 12 -57t40 -18q52 0 124 64v273h-70v65h155v-382q0 -28 28 -28q18 0 42 9v-66z" />
    <glyph glyph-name="v" unicode="v" horiz-adv-x="509" 
d="M489 405h-60l-131 -405h-91l-127 405h-60v65h210v-65h-60l85 -301l105 366h129v-65z" />
    <glyph glyph-name="w" unicode="w" horiz-adv-x="752" 
d="M732 405h-54l-115 -405h-83l-95 334l-114 -334h-81l-110 405h-60v65h208v-65h-60l69 -287l116 352h142v-65h-52l77 -288l87 353h125v-65z" />
    <glyph glyph-name="x" unicode="x" horiz-adv-x="471" 
d="M451 0h-213v65h61l-63 120l-103 -185h-113v65h54l101 169l-95 171h-60v65h213v-65h-57l61 -116l98 181h116v-65h-57l-95 -161l97 -179h55v-65z" />
    <glyph glyph-name="y" unicode="y" horiz-adv-x="500" 
d="M480 405h-52l-120 -376q-14 -45 -25.5 -73t-32 -61.5t-45 -53t-63.5 -34t-89 -17.5l-3 68q118 11 155 128l10 31l-140 388h-55v65h200v-65h-54l94 -283l98 348h122v-65z" />
    <glyph glyph-name="z" unicode="z" horiz-adv-x="425" 
d="M395 470l-222 -395h150v91h65v-166h-358l224 395h-138v-78h-65v153h344z" />
    <glyph glyph-name="braceleft" unicode="{" horiz-adv-x="275" 
d="M265 -82q-88 0 -132.5 37.5t-44.5 127.5v78q0 72 -13 105.5t-55 46.5v39q42 13 55 46t13 106v78q0 90 43.5 127.5t133.5 37.5v-51q-87 0 -87 -124v-75q0 -80 -19 -115.5t-64 -49.5q45 -15 64 -47.5t19 -116.5v-75q0 -62 20.5 -93t66.5 -31v-51z" />
    <glyph glyph-name="bar" unicode="|" horiz-adv-x="245" 
d="M165 -82h-85v829h85v-829z" />
    <glyph glyph-name="braceright" unicode="}" horiz-adv-x="275" 
d="M255 313q-42 -12 -55 -46t-13 -106v-78q0 -90 -44.5 -127.5t-132.5 -37.5v51q46 0 66.5 31t20.5 93v75q0 85 19 117t64 47q-44 13 -63.5 49t-19.5 116v75q0 124 -87 124v51q90 0 133.5 -37.5t43.5 -127.5v-78q0 -73 12.5 -106t55.5 -46v-39z" />
    <glyph glyph-name="asciitilde" unicode="~" horiz-adv-x="358" 
d="M328 315q-11 -34 -35 -59.5t-59 -25.5q-29 0 -60 14.5t-52 14.5q-12 0 -26.5 -9.5t-23.5 -22.5l-42 29q12 33 37.5 59t61.5 26q31 0 60.5 -14.5t46.5 -14.5q28 0 49 31z" />
    <glyph glyph-name="uni00A0" unicode="&#xa0;" horiz-adv-x="270" 
 />
    <glyph glyph-name="exclamdown" unicode="&#xa1;" horiz-adv-x="260" 
d="M180 -200h-100v200l10 273h80l10 -273v-200zM180 370h-100v100h100v-100z" />
    <glyph glyph-name="cent" unicode="&#xa2;" horiz-adv-x="425" 
d="M385 30q-56 -30 -103 -37v-109h-85v111q-147 30 -147 235q0 106 41.5 165.5t105.5 77.5v113h85v-108q51 -6 103 -34v-127h-65v80q-35 13 -66 13q-44 0 -79 -43.5t-35 -133.5q0 -92 30.5 -131.5t75.5 -39.5q34 0 74 18v86h65v-136z" />
    <glyph glyph-name="sterling" unicode="&#xa3;" horiz-adv-x="440" 
d="M390 0h-360v69q70 93 70 256h-70v65h70v77q0 87 44.5 133.5t121.5 46.5q15 0 29 -1t25.5 -3l19.5 -3.5t17 -5l13 -5t11.5 -5t8.5 -4.5v-130h-65v80q-33 7 -59 7q-38 0 -59.5 -28.5t-21.5 -80.5v-78h135v-65h-135q0 -95 -16.5 -150.5t-52.5 -104.5h209v96h65v-166z" />
    <glyph glyph-name="currency" unicode="&#xa4;" horiz-adv-x="560" 
d="M474 167l-42 -42l-75 74q-35 -22 -77 -22t-77 22l-75 -75l-42 42l74 74q-25 36 -25 82q0 42 22 77l-71 72l42 42l71 -71q38 25 81 25q45 0 81 -25l71 70l42 -42l-71 -72q21 -33 21 -76q0 -44 -24 -81zM364 322q0 38 -24 62.5t-60 24.5t-60.5 -24.5t-24.5 -62.5
t24.5 -62.5t60.5 -24.5t60 24.5t24 62.5z" />
    <glyph glyph-name="yen" unicode="&#xa5;" horiz-adv-x="544" 
d="M524 572h-59l-119 -245h107v-70h-140v-70h140v-70h-140v-52h90v-65h-270v65h90v52h-140v70h140v70h-140v70h109l-113 245h-59v65h213v-65h-57l95 -213l99 213h-57v65h211v-65z" />
    <glyph glyph-name="brokenbar" unicode="&#xa6;" horiz-adv-x="245" 
d="M165 418h-85v329h85v-329zM165 -82h-85v329h85v-329z" />
    <glyph glyph-name="section" unicode="&#xa7;" horiz-adv-x="393" 
d="M353 313q0 -64 -60 -103q50 -40 50 -112t-43 -105t-113 -33q-74 0 -146 30v146h65v-93q35 -14 74 -14q35 0 55 17.5t20 48.5q0 53 -66 72l-48 14q-41 11 -71 40t-30 72q0 73 67 107q-57 37 -57 109q0 71 46 104.5t110 33.5q59 0 133 -24v-139h-65v84q-40 10 -62 10
q-33 0 -53.5 -16t-20.5 -44q0 -27 16 -41.5t43 -23.5l47 -16q54 -19 81.5 -47t27.5 -77zM265 297q0 45 -48 61l-60 19q-29 -25 -29 -59q0 -27 14 -39.5t45 -22.5l53 -17q25 25 25 58z" />
    <glyph glyph-name="dieresis" unicode="&#xa8;" horiz-adv-x="325" 
d="M285 582h-85v85h85v-85zM125 582h-85v85h85v-85z" />
    <glyph glyph-name="copyright" unicode="&#xa9;" horiz-adv-x="768" 
d="M718 334q0 -162 -93.5 -253t-240.5 -91t-240.5 91t-93.5 253t93 252.5t241 90.5t241 -90.5t93 -252.5zM623 334q0 125 -66.5 196t-172.5 71t-172.5 -71t-66.5 -196t66.5 -196.5t172.5 -71.5t172.5 71.5t66.5 196.5zM508 173q-60 -46 -124 -46q-63 0 -110.5 48.5
t-47.5 157.5q0 106 49 156.5t118 50.5q56 0 114 -43l-27 -50q-45 30 -84 30q-36 0 -64.5 -34.5t-28.5 -109.5q0 -73 25.5 -107.5t59.5 -34.5q40 0 88 32z" />
    <glyph glyph-name="ordfeminine" unicode="&#xaa;" horiz-adv-x="397" 
d="M347 293h-88v32q-42 -40 -87 -40q-50 0 -86 27t-36 89q0 125 158 125h51v16q0 34 -12 46.5t-42 12.5q-37 0 -113 -28l-17 66q89 38 145 38q127 0 127 -127v-257zM347 0h-277v80h277v-80zM259 385v83h-49q-68 0 -68 -59q0 -26 12 -39t31 -13q35 0 74 28z" />
    <glyph glyph-name="guillemotleft" unicode="&#xab;" horiz-adv-x="474" 
d="M434 118l-63 -38l-141 195l141 195l63 -38l-105 -157zM244 118l-63 -38l-141 195l141 195l63 -38l-105 -157z" />
    <glyph glyph-name="logicalnot" unicode="&#xac;" horiz-adv-x="517" 
d="M457 127h-84v140h-313v80h397v-220z" />
    <glyph glyph-name="uni00AD" unicode="&#xad;" horiz-adv-x="257" 
d="M227 262h-197v75h197v-75z" />
    <glyph glyph-name="registered" unicode="&#xae;" horiz-adv-x="768" 
d="M718 334q0 -162 -93.5 -253t-240.5 -91t-240.5 91t-93.5 253t93 252.5t241 90.5t241 -90.5t93 -252.5zM623 334q0 125 -66.5 196t-172.5 71t-172.5 -71t-66.5 -196t66.5 -196.5t172.5 -71.5t172.5 71.5t66.5 196.5zM549 133h-87l-96 156h-23v-156h-74v401h103
q59 0 98.5 -29t39.5 -94q0 -77 -69 -109zM433 412q0 61 -60 61h-30v-124h29q29 0 45 13.5t16 49.5z" />
    <glyph glyph-name="macron" unicode="&#xaf;" horiz-adv-x="247" 
d="M227 596h-207v71h207v-71z" />
    <glyph glyph-name="degree" unicode="&#xb0;" horiz-adv-x="386" 
d="M346 511q0 -82 -42 -124t-111 -42t-111 42t-42 124t42 124t111 42t111 -42t42 -124zM256 511q0 103 -63 103t-63 -103q0 -101 63 -101t63 101z" />
    <glyph glyph-name="plusminus" unicode="&#xb1;" horiz-adv-x="481" 
d="M421 267h-138v-140h-84v140h-139v80h139v149h84v-149h138v-80zM421 0h-361v80h361v-80z" />
    <glyph glyph-name="twosuperior" unicode="&#xb2;" horiz-adv-x="271" 
d="M246 291h-225q0 16 2 40q8 64 59 115l39 38q37 35 47.5 53t10.5 42q0 43 -49 43q-25 0 -48 -10v-49h-50v86q45 25 105 25q114 0 114 -98q0 -36 -19.5 -65t-56.5 -64l-39 -38q-35 -33 -36 -63h96v51h50v-106z" />
    <glyph glyph-name="threesuperior" unicode="&#xb3;" horiz-adv-x="240" 
d="M10 305v92h50v-55q26 -8 49 -8q26 0 39.5 15.5t13.5 38.5q0 41 -21.5 54.5t-62.5 13.5h-18v54h18q35 0 54 19.5t19 46.5q0 46 -48 46q-19 0 -41 -9v-50h-50v89q51 22 97 22q54 0 81.5 -24t27.5 -66q0 -69 -65 -97q36 -8 56.5 -33.5t20.5 -63.5q0 -51 -31.5 -78.5
t-83.5 -27.5q-61 0 -105 21z" />
    <glyph glyph-name="acute" unicode="&#xb4;" horiz-adv-x="214" 
d="M184 697l-69 -126h-85l54 126h100z" />
    <glyph glyph-name="mu" unicode="&#xb5;" horiz-adv-x="526" 
d="M506 3q-31 -13 -66 -13q-75 0 -83 72q-68 -72 -147 -72q-20 0 -35 4v-129h105v-65h-260v65h70v540h-70v65h155v-327q0 -39 12 -57t40 -18q52 0 124 64v273h-70v65h155v-382q0 -28 28 -28q14 0 42 9v-66z" />
    <glyph glyph-name="paragraph" unicode="&#xb6;" horiz-adv-x="544" 
d="M294 0h-164v65h79v227q-75 9 -117 57t-42 125q0 97 61.5 145t158.5 48h24v-667zM524 0h-155v667h155v-65h-70v-537h70v-65z" />
    <glyph glyph-name="periodcentered" unicode="&#xb7;" horiz-adv-x="245" 
d="M175 288h-105v105h105v-105z" />
    <glyph glyph-name="cedilla" unicode="&#xb8;" horiz-adv-x="180" 
d="M140 -120l-30 -110l-63 10l21 100h-28v90h100v-90z" />
    <glyph glyph-name="onesuperior" unicode="&#xb9;" horiz-adv-x="212" 
d="M28 291v48h55v251l-59 -12l-4 42l94 47h35v-328h55v-48h-176z" />
    <glyph glyph-name="ordmasculine" unicode="&#xba;" horiz-adv-x="442" 
d="M392 481q0 -95 -48 -145.5t-123 -50.5t-123 50.5t-48 145.5t48.5 145.5t122.5 50.5q75 0 123 -50.5t48 -145.5zM300 481q0 126 -79 126t-79 -126q0 -125 79 -125t79 125zM372 0h-302v80h302v-80z" />
    <glyph glyph-name="guillemotright" unicode="&#xbb;" horiz-adv-x="474" 
d="M434 275l-141 -195l-63 38l105 157l-105 157l63 38zM244 275l-141 -195l-63 38l105 157l-105 157l63 38z" />
    <glyph glyph-name="onequarter" unicode="&#xbc;" horiz-adv-x="746" 
d="M616 0v77h-155v56l150 243h71v-244h51v-55h-51v-77h-66zM521 132h95v153zM35 291v48h55v251l-59 -12l-4 42l94 47h35v-328h55v-48h-176zM236 3l177 673l69 -14l-178 -672z" />
    <glyph glyph-name="onehalf" unicode="&#xbd;" horiz-adv-x="747" 
d="M36 290v48h55v251l-59 -12l-4 42l94 47h35v-328h55v-48h-176zM237 2l177 673l68 -13l-178 -672zM722 0h-225q0 16 2 40q8 64 59 115l39 38q37 35 47.5 53t10.5 42q0 43 -49 43q-25 0 -48 -10v-49h-50v86q45 25 105 25q114 0 114 -98q0 -36 -19.5 -65t-56.5 -64l-39 -38
q-35 -33 -36 -63h96v51h50v-106z" />
    <glyph glyph-name="threequarters" unicode="&#xbe;" horiz-adv-x="765" 
d="M255 3l177 673l69 -14l-178 -672zM29 305v92h50v-55q26 -8 49 -8q26 0 39.5 15.5t13.5 38.5q0 41 -21.5 54.5t-62.5 13.5h-18v54h18q35 0 54 19.5t19 46.5q0 46 -48 46q-19 0 -41 -9v-50h-50v89q51 22 97 22q54 0 81.5 -24t27.5 -66q0 -69 -65 -97q36 -8 56.5 -33.5
t20.5 -63.5q0 -51 -31.5 -78.5t-83.5 -27.5q-61 0 -105 21zM635 0v77h-155v56l150 243h71v-244h51v-55h-51v-77h-66zM540 132h95v153z" />
    <glyph glyph-name="questiondown" unicode="&#xbf;" horiz-adv-x="423" 
d="M373 -178q-84 -32 -150 -32q-77 0 -125 39t-48 116q0 41 13.5 76.5t25.5 50.5t34 39q29 31 42.5 54.5t13.5 58.5q0 27 -2 49h90q2 -36 2 -56q0 -48 -15.5 -80t-49.5 -71q-54 -58 -54 -114q0 -42 21 -64t59 -22q32 0 78 14v77h65v-135zM272 370h-100v100h100v-100z" />
    <glyph glyph-name="Agrave" unicode="&#xc0;" horiz-adv-x="621" 
d="M601 0h-135l-54 192h-204l-35 -127h67v-65h-220v65h59l156 537h-67v65h198l176 -602h59v-65zM393 267l-84 314l-83 -314h167zM345 697h-85l-59 96h100z" />
    <glyph glyph-name="Aacute" unicode="&#xc1;" horiz-adv-x="621" 
d="M601 0h-135l-54 192h-204l-35 -127h67v-65h-220v65h59l156 537h-67v65h198l176 -602h59v-65zM393 267l-84 314l-83 -314h167zM411 793l-59 -96h-85l44 96h100z" />
    <glyph glyph-name="Acircumflex" unicode="&#xc2;" horiz-adv-x="621" 
d="M601 0h-135l-54 192h-204l-35 -127h67v-65h-220v65h59l156 537h-67v65h198l176 -602h59v-65zM393 267l-84 314l-83 -314h167zM460 697h-109l-40 39l-42 -39h-107l95 96h108z" />
    <glyph glyph-name="Atilde" unicode="&#xc3;" horiz-adv-x="621" 
d="M601 0h-135l-54 192h-204l-35 -127h67v-65h-220v65h59l156 537h-67v65h198l176 -602h59v-65zM393 267l-84 314l-83 -314h167zM442 772q-10 -33 -30 -54t-48 -21q-25 0 -55.5 12t-43.5 12q-28 0 -40 -24l-46 29q10 33 31.5 54t50.5 21q27 0 56.5 -12t42.5 -12q23 0 36 23z
" />
    <glyph glyph-name="Adieresis" unicode="&#xc4;" horiz-adv-x="621" 
d="M601 0h-135l-54 192h-204l-35 -127h67v-65h-220v65h59l156 537h-67v65h198l176 -602h59v-65zM393 267l-84 314l-83 -314h167zM433 697h-85v85h85v-85zM273 697h-85v85h85v-85z" />
    <glyph glyph-name="Aring" unicode="&#xc5;" horiz-adv-x="621" 
d="M601 0h-135l-54 192h-204l-35 -127h67v-65h-220v65h59l161 556q-31 26 -31 78q0 48 28.5 74t74.5 26t73.5 -27t27.5 -73q0 -53 -33 -80l162 -554h59v-65zM393 267l-84 314l-83 -314h167zM351 699q0 49 -39 49q-41 0 -41 -50t41 -50q39 0 39 51z" />
    <glyph glyph-name="AE" unicode="&#xc6;" horiz-adv-x="780" 
d="M730 0h-344v192h-155l-55 -127h64v-65h-220v65h59l236 537h-87v65h502v-177h-65v102h-189v-215h191v-75h-191v-227h189v106h65v-181zM386 267v313l-129 -313h129z" />
    <glyph glyph-name="Ccedilla" unicode="&#xc7;" horiz-adv-x="521" 
d="M481 34q-88 -44 -185 -44q-35 0 -67 9t-65.5 33.5t-58 62t-40 99t-15.5 139.5q0 93 23 162.5t62 107.5t83 56t93 18q85 0 170 -37v-150h-65v92q-51 19 -100 19q-69 0 -120 -65.5t-51 -202.5q0 -133 46 -199t112 -66q60 0 113 24v89h65v-147zM343 -120l-30 -110l-63 10
l21 100h-28v90h100v-90z" />
    <glyph glyph-name="Egrave" unicode="&#xc8;" horiz-adv-x="514" 
d="M464 0h-444v65h70v537h-70v65h444v-177h-65v102h-219v-215h201v-75h-201v-227h219v106h65v-181zM304 697h-85l-59 96h100z" />
    <glyph glyph-name="Eacute" unicode="&#xc9;" horiz-adv-x="514" 
d="M464 0h-444v65h70v537h-70v65h444v-177h-65v102h-219v-215h201v-75h-201v-227h219v106h65v-181zM354 793l-59 -96h-85l44 96h100z" />
    <glyph glyph-name="Ecircumflex" unicode="&#xca;" horiz-adv-x="514" 
d="M464 0h-444v65h70v537h-70v65h444v-177h-65v102h-219v-215h201v-75h-201v-227h219v106h65v-181zM413 697h-109l-40 39l-42 -39h-107l95 96h108z" />
    <glyph glyph-name="Edieresis" unicode="&#xcb;" horiz-adv-x="514" 
d="M464 0h-444v65h70v537h-70v65h444v-177h-65v102h-219v-215h201v-75h-201v-227h219v106h65v-181zM375 697h-85v85h85v-85zM215 697h-85v85h85v-85z" />
    <glyph glyph-name="Igrave" unicode="&#xcc;" horiz-adv-x="270" 
d="M250 0h-230v65h70v537h-70v65h230v-65h-70v-537h70v-65zM178 697h-85l-59 96h100z" />
    <glyph glyph-name="Iacute" unicode="&#xcd;" horiz-adv-x="270" 
d="M250 0h-230v65h70v537h-70v65h230v-65h-70v-537h70v-65zM240 793l-59 -96h-85l44 96h100z" />
    <glyph glyph-name="Icircumflex" unicode="&#xce;" horiz-adv-x="270" 
d="M250 0h-230v65h70v537h-70v65h230v-65h-70v-537h70v-65zM284 697h-109l-40 39l-42 -39h-107l95 96h108z" />
    <glyph glyph-name="Idieresis" unicode="&#xcf;" horiz-adv-x="270" 
d="M250 0h-230v65h70v537h-70v65h230v-65h-70v-537h70v-65zM258 697h-85v85h85v-85zM98 697h-85v85h85v-85z" />
    <glyph glyph-name="Eth" unicode="&#xd0;" horiz-adv-x="605" 
d="M555 333q0 -333 -312 -333h-223v65h70v237h-40v75h40v225h-70v65h240q135 0 215 -78.5t80 -255.5zM460 333q0 259 -206 259h-74v-215h157v-75h-157v-227h60q116 0 168 63.5t52 194.5z" />
    <glyph glyph-name="Ntilde" unicode="&#xd1;" horiz-adv-x="636" 
d="M616 602h-70v-602h-90l-276 523v-458h75v-65h-235v65h70v537h-70v65h180l256 -486v421h-75v65h235v-65zM450 772q-10 -33 -30 -54t-48 -21q-24 0 -55 12t-44 12q-28 0 -40 -24l-46 29q10 33 31.5 54t50.5 21q27 0 56.5 -12t42.5 -12q23 0 36 23z" />
    <glyph glyph-name="Ograve" unicode="&#xd2;" horiz-adv-x="636" 
d="M586 333q0 -166 -73.5 -254.5t-194.5 -88.5t-194.5 89t-73.5 254t74.5 254.5t193.5 89.5q120 0 194 -89.5t74 -254.5zM491 333q0 133 -48.5 201t-124.5 68t-124.5 -68t-48.5 -201t48.5 -199.5t124.5 -66.5q75 0 124 66.5t49 199.5zM357 697h-85l-59 96h100z" />
    <glyph glyph-name="Oacute" unicode="&#xd3;" horiz-adv-x="636" 
d="M586 333q0 -166 -73.5 -254.5t-194.5 -88.5t-194.5 89t-73.5 254t74.5 254.5t193.5 89.5q120 0 194 -89.5t74 -254.5zM491 333q0 133 -48.5 201t-124.5 68t-124.5 -68t-48.5 -201t48.5 -199.5t124.5 -66.5q75 0 124 66.5t49 199.5zM415 793l-59 -96h-85l44 96h100z" />
    <glyph glyph-name="Ocircumflex" unicode="&#xd4;" horiz-adv-x="636" 
d="M586 333q0 -166 -73.5 -254.5t-194.5 -88.5t-194.5 89t-73.5 254t74.5 254.5t193.5 89.5q120 0 194 -89.5t74 -254.5zM491 333q0 133 -48.5 201t-124.5 68t-124.5 -68t-48.5 -201t48.5 -199.5t124.5 -66.5q75 0 124 66.5t49 199.5zM467 697h-109l-40 39l-42 -39h-107
l95 96h108z" />
    <glyph glyph-name="Otilde" unicode="&#xd5;" horiz-adv-x="636" 
d="M586 333q0 -166 -73.5 -254.5t-194.5 -88.5t-194.5 89t-73.5 254t74.5 254.5t193.5 89.5q120 0 194 -89.5t74 -254.5zM491 333q0 133 -48.5 201t-124.5 68t-124.5 -68t-48.5 -201t48.5 -199.5t124.5 -66.5q75 0 124 66.5t49 199.5zM450 772q-10 -33 -30 -54t-48 -21
q-24 0 -55 12t-44 12q-28 0 -40 -24l-46 29q10 33 31.5 54t50.5 21q27 0 56.5 -12t42.5 -12q23 0 36 23z" />
    <glyph glyph-name="Odieresis" unicode="&#xd6;" horiz-adv-x="636" 
d="M471 697h-85v85h85v-85zM251 697h-85v85h85v-85zM586 333q0 -166 -73.5 -254.5t-194.5 -88.5t-194.5 89t-73.5 254t74.5 254.5t193.5 89.5q120 0 194 -89.5t74 -254.5zM491 333q0 133 -48.5 201t-124.5 68t-124.5 -68t-48.5 -201t48.5 -199.5t124.5 -66.5q75 0 124 66.5
t49 199.5z" />
    <glyph glyph-name="multiply" unicode="&#xd7;" horiz-adv-x="451" 
d="M109 121l-57 59l115 115l-115 116l58 58l116 -116l115 116l57 -58l-114 -116l115 -115l-58 -59l-115 118z" />
    <glyph glyph-name="Oslash" unicode="&#xd8;" horiz-adv-x="626" 
d="M586 333q0 -166 -73.5 -254.5t-194.5 -88.5q-90 0 -154 49l-63 -99l-51 29l71 112q-71 90 -71 252q0 165 74.5 254.5t193.5 89.5q88 0 151 -48l63 99l54 -29l-72 -113q72 -91 72 -253zM491 333q0 100 -31 169l-249 -390q44 -45 107 -45q75 0 124 66.5t49 199.5zM424 557
q-44 45 -106 45q-76 0 -124.5 -68t-48.5 -201q0 -102 30 -167z" />
    <glyph glyph-name="Ugrave" unicode="&#xd9;" horiz-adv-x="620" 
d="M600 602h-70v-378q0 -119 -57.5 -176.5t-162.5 -57.5q-103 0 -161.5 58t-58.5 176v378h-70v65h235v-65h-75v-374q0 -80 35.5 -119.5t94.5 -39.5t94.5 39t35.5 119v375h-75v65h235v-65zM355 697h-85l-59 96h100z" />
    <glyph glyph-name="Uacute" unicode="&#xda;" horiz-adv-x="620" 
d="M600 602h-70v-378q0 -119 -57.5 -176.5t-162.5 -57.5q-103 0 -161.5 58t-58.5 176v378h-70v65h235v-65h-75v-374q0 -80 35.5 -119.5t94.5 -39.5t94.5 39t35.5 119v375h-75v65h235v-65zM415 793l-59 -96h-85l44 96h100z" />
    <glyph glyph-name="Ucircumflex" unicode="&#xdb;" horiz-adv-x="620" 
d="M600 602h-70v-378q0 -119 -57.5 -176.5t-162.5 -57.5q-103 0 -161.5 58t-58.5 176v378h-70v65h235v-65h-75v-374q0 -80 35.5 -119.5t94.5 -39.5t94.5 39t35.5 119v375h-75v65h235v-65zM459 697h-109l-40 39l-42 -39h-107l95 96h108z" />
    <glyph glyph-name="Udieresis" unicode="&#xdc;" horiz-adv-x="620" 
d="M600 602h-70v-378q0 -119 -57.5 -176.5t-162.5 -57.5q-103 0 -161.5 58t-58.5 176v378h-70v65h235v-65h-75v-374q0 -80 35.5 -119.5t94.5 -39.5t94.5 39t35.5 119v375h-75v65h235v-65zM433 697h-85v85h85v-85zM273 697h-85v85h85v-85z" />
    <glyph glyph-name="Yacute" unicode="&#xdd;" horiz-adv-x="544" 
d="M524 602h-59l-152 -342v-195h90v-65h-270v65h90v195l-144 342h-59v65h213v-65h-57l95 -243l99 243h-57v65h211v-65zM376 793l-59 -96h-85l44 96h100z" />
    <glyph glyph-name="Thorn" unicode="&#xde;" horiz-adv-x="509" 
d="M459 339q0 -55 -18 -95t-49.5 -61.5t-67.5 -31t-79 -9.5h-65v-77h80v-65h-240v65h70v537h-70v65h240v-65h-80v-65h65q43 0 79.5 -10t67.5 -31.5t49 -61.5t18 -95zM364 341q0 124 -118 124h-66v-251h65q119 0 119 127z" />
    <glyph glyph-name="germandbls" unicode="&#xdf;" horiz-adv-x="542" 
d="M507 128q0 -70 -40.5 -104t-104.5 -34q-69 0 -137 22v154h65v-97q29 -9 67 -9q60 0 60 60q0 27 -11 43t-33 34l-40 32q-32 25 -48 48.5t-16 60.5q0 34 12 58.5t39 60.5q37 50 37 104q0 33 -22.5 54.5t-66.5 21.5q-46 0 -69.5 -29.5t-23.5 -68.5v-539h-155v65h70v340h-70
v65h70v67q0 79 46 124.5t132 45.5q81 0 130 -39t49 -101q0 -76 -45 -131l-11 -14.5l-11 -14.5l-9 -12.5t-8 -13.5t-4 -12t-2 -13q0 -23 35 -53l42 -36q23 -20 35 -32.5t25 -41.5t13 -65z" />
    <glyph glyph-name="agrave" unicode="&#xe0;" horiz-adv-x="475" 
d="M455 3q-26 -13 -66 -13q-66 0 -80 55q-51 -55 -128 -55q-59 0 -100 32.5t-41 107.5q0 80 50 117.5t135 37.5h75v30q0 50 -18 70t-61 20q-34 0 -83 -14v-74h-65v129q102 34 166 34q146 0 146 -155v-237q0 -28 28 -28q15 0 42 9v-66zM300 110v117h-73q-97 0 -97 -86
q0 -81 69 -81q44 0 101 50zM274 571h-85l-69 126h100z" />
    <glyph glyph-name="aacute" unicode="&#xe1;" horiz-adv-x="475" 
d="M455 3q-26 -13 -66 -13q-66 0 -80 55q-51 -55 -128 -55q-59 0 -100 32.5t-41 107.5q0 80 50 117.5t135 37.5h75v30q0 50 -18 70t-61 20q-34 0 -83 -14v-74h-65v129q102 34 166 34q146 0 146 -155v-237q0 -28 28 -28q15 0 42 9v-66zM300 110v117h-73q-97 0 -97 -86
q0 -81 69 -81q44 0 101 50zM340 697l-69 -126h-85l54 126h100z" />
    <glyph glyph-name="acircumflex" unicode="&#xe2;" horiz-adv-x="475" 
d="M455 3q-26 -13 -66 -13q-66 0 -80 55q-51 -55 -128 -55q-59 0 -100 32.5t-41 107.5q0 80 50 117.5t135 37.5h75v30q0 50 -18 70t-61 20q-34 0 -83 -14v-74h-65v129q102 34 166 34q146 0 146 -155v-237q0 -28 28 -28q15 0 42 9v-66zM300 110v117h-73q-97 0 -97 -86
q0 -81 69 -81q44 0 101 50zM378 571h-99l-50 69l-52 -69h-97l95 126h108z" />
    <glyph glyph-name="atilde" unicode="&#xe3;" horiz-adv-x="475" 
d="M455 3q-26 -13 -66 -13q-66 0 -80 55q-51 -55 -128 -55q-59 0 -100 32.5t-41 107.5q0 80 50 117.5t135 37.5h75v30q0 50 -18 70t-61 20q-34 0 -83 -14v-74h-65v129q102 34 166 34q146 0 146 -155v-237q0 -28 28 -28q15 0 42 9v-66zM300 110v117h-73q-97 0 -97 -86
q0 -81 69 -81q44 0 101 50zM356 648q-10 -33 -30 -54t-48 -21q-24 0 -55 12t-44 12q-28 0 -40 -24l-46 29q10 33 31.5 54t50.5 21q27 0 56.5 -12t42.5 -12q23 0 36 23z" />
    <glyph glyph-name="adieresis" unicode="&#xe4;" horiz-adv-x="475" 
d="M455 3q-26 -13 -66 -13q-66 0 -80 55q-51 -55 -128 -55q-59 0 -100 32.5t-41 107.5q0 80 50 117.5t135 37.5h75v30q0 50 -18 70t-61 20q-34 0 -83 -14v-74h-65v129q102 34 166 34q146 0 146 -155v-237q0 -28 28 -28q15 0 42 9v-66zM300 110v117h-73q-97 0 -97 -86
q0 -81 69 -81q44 0 101 50zM349 582h-85v85h85v-85zM189 582h-85v85h85v-85z" />
    <glyph glyph-name="aring" unicode="&#xe5;" horiz-adv-x="475" 
d="M455 3q-26 -13 -66 -13q-66 0 -80 55q-51 -55 -128 -55q-59 0 -100 32.5t-41 107.5q0 80 50 117.5t135 37.5h75v30q0 50 -18 70t-61 20q-34 0 -83 -14v-74h-65v129q102 34 166 34q146 0 146 -155v-237q0 -28 28 -28q15 0 42 9v-66zM300 110v117h-73q-97 0 -97 -86
q0 -81 69 -81q44 0 101 50zM326 659q0 -48 -27.5 -75t-73.5 -27q-47 0 -75 26.5t-28 75.5q0 47 28.5 73.5t74.5 26.5t73.5 -27t27.5 -73zM264 659q0 49 -39 49q-41 0 -41 -50t41 -50q39 0 39 51z" />
    <glyph glyph-name="ae" unicode="&#xe6;" horiz-adv-x="712" 
d="M662 205h-271q4 -66 32.5 -104t72.5 -38q52 0 128 47l31 -58q-23 -18 -39 -28.5t-50 -22t-71 -11.5q-109 0 -157 87q-31 -42 -66 -64.5t-88 -22.5q-59 0 -101.5 32.5t-42.5 107.5q0 80 50 117.5t135 37.5h75v30q0 50 -18 70t-61 20q-34 0 -83 -14v-74h-65v129
q102 34 166 34q87 0 122 -64q25 32 52.5 48t71.5 16q90 0 133.5 -67.5t43.5 -207.5zM300 170v57h-73q-97 0 -97 -86q0 -81 67 -81q41 0 72 28t31 82zM571 268q0 66 -21.5 105t-64.5 39q-85 0 -94 -144h180z" />
    <glyph glyph-name="ccedilla" unicode="&#xe7;" horiz-adv-x="425" 
d="M385 30q-69 -40 -141 -40q-35 0 -66 10t-61.5 34.5t-48.5 74.5t-18 121q0 128 59 189t141 61q72 0 135 -36v-127h-65v80q-34 13 -66 13q-44 0 -79 -43.5t-35 -133.5q0 -92 30.5 -131.5t75.5 -39.5q34 0 74 18v86h65v-136zM288 -120l-30 -110l-63 10l21 100h-28v90h100
v-90z" />
    <glyph glyph-name="egrave" unicode="&#xe8;" horiz-adv-x="462" 
d="M412 205h-271q4 -66 32.5 -104t72.5 -38q51 0 128 47l31 -58q-77 -62 -160 -62q-86 0 -140.5 57.5t-54.5 185.5q0 119 51.5 183t133.5 64q90 0 133.5 -67.5t43.5 -207.5zM321 268q0 66 -21.5 105t-64.5 39q-85 0 -94 -144h180zM274 571h-85l-69 126h100z" />
    <glyph glyph-name="eacute" unicode="&#xe9;" horiz-adv-x="462" 
d="M412 205h-271q4 -66 32.5 -104t72.5 -38q51 0 128 47l31 -58q-77 -62 -160 -62q-86 0 -140.5 57.5t-54.5 185.5q0 119 51.5 183t133.5 64q90 0 133.5 -67.5t43.5 -207.5zM321 268q0 66 -21.5 105t-64.5 39q-85 0 -94 -144h180zM344 697l-69 -126h-85l54 126h100z" />
    <glyph glyph-name="ecircumflex" unicode="&#xea;" horiz-adv-x="462" 
d="M412 205h-271q4 -66 32.5 -104t72.5 -38q51 0 128 47l31 -58q-77 -62 -160 -62q-86 0 -140.5 57.5t-54.5 185.5q0 119 51.5 183t133.5 64q90 0 133.5 -67.5t43.5 -207.5zM321 268q0 66 -21.5 105t-64.5 39q-85 0 -94 -144h180zM380 571h-99l-50 69l-52 -69h-97l95 126
h108z" />
    <glyph glyph-name="edieresis" unicode="&#xeb;" horiz-adv-x="462" 
d="M412 205h-271q4 -66 32.5 -104t72.5 -38q51 0 128 47l31 -58q-77 -62 -160 -62q-86 0 -140.5 57.5t-54.5 185.5q0 119 51.5 183t133.5 64q90 0 133.5 -67.5t43.5 -207.5zM321 268q0 66 -21.5 105t-64.5 39q-85 0 -94 -144h180zM354 582h-85v85h85v-85zM194 582h-85v85h85
v-85z" />
    <glyph glyph-name="igrave" unicode="&#xec;" horiz-adv-x="265" 
d="M245 3q-31 -13 -66 -13q-89 0 -89 90v325h-70v65h155v-382q0 -28 28 -28q15 0 42 9v-66zM166 571h-85l-69 126h100z" />
    <glyph glyph-name="iacute" unicode="&#xed;" horiz-adv-x="265" 
d="M245 3q-31 -13 -66 -13q-89 0 -89 90v325h-70v65h155v-382q0 -28 28 -28q15 0 42 9v-66zM244 697l-69 -126h-85l54 126h100z" />
    <glyph glyph-name="icircumflex" unicode="&#xee;" horiz-adv-x="265" 
d="M245 3q-31 -13 -66 -13q-89 0 -89 90v325h-70v65h155v-382q0 -28 28 -28q15 0 42 9v-66zM282 571h-99l-50 69l-52 -69h-97l95 126h108z" />
    <glyph glyph-name="idieresis" unicode="&#xef;" horiz-adv-x="265" 
d="M245 582h-85v85h85v-85zM105 582h-85v85h85v-85zM245 3q-31 -13 -66 -13q-89 0 -89 90v325h-70v65h155v-382q0 -28 28 -28q15 0 42 9v-66z" />
    <glyph glyph-name="eth" unicode="&#xf0;" horiz-adv-x="497" 
d="M467 563l-42 -17q24 -85 24 -229q0 -96 -14 -162t-41.5 -101t-61.5 -49.5t-82 -14.5q-90 0 -145 54.5t-55 158.5q0 110 53.5 167t131.5 57q74 0 119 -48q0 81 -12 133l-117 -47v79l92 37q-26 55 -88 55q-34 0 -74 -12v-72h-65v127q1 0 17 5.5t26 8t28 6.5t38 6t42 2
q108 0 157 -93l69 28v-79zM359 287v19q-55 50 -117 50q-44 0 -73.5 -34.5t-29.5 -110.5q0 -150 114 -150q106 0 106 226z" />
    <glyph glyph-name="ntilde" unicode="&#xf1;" horiz-adv-x="526" 
d="M506 3q-31 -13 -66 -13q-89 0 -89 90v245q0 39 -12 57t-40 18q-47 0 -124 -67v-268h75v-65h-230v65h70v340h-70v65h155v-66q69 76 146 76q115 0 115 -132v-260q0 -28 28 -28q15 0 42 9v-66zM395 648q-10 -33 -30 -54t-48 -21q-25 0 -55.5 12t-43.5 12q-28 0 -40 -24
l-46 29q10 33 31.5 54t50.5 21q27 0 56.5 -12t42.5 -12q23 0 36 23z" />
    <glyph glyph-name="ograve" unicode="&#xf2;" horiz-adv-x="502" 
d="M452 235q0 -124 -55.5 -184.5t-145.5 -60.5q-89 0 -145 60.5t-56 184.5q0 125 56 185t145 60t145 -60.5t56 -184.5zM362 235q0 90 -30.5 132.5t-80.5 42.5t-80.5 -42t-30.5 -133q0 -90 30.5 -132t80.5 -42q111 0 111 174zM291 571h-85l-69 126h100z" />
    <glyph glyph-name="oacute" unicode="&#xf3;" horiz-adv-x="502" 
d="M452 235q0 -124 -55.5 -184.5t-145.5 -60.5q-89 0 -145 60.5t-56 184.5q0 125 56 185t145 60t145 -60.5t56 -184.5zM362 235q0 90 -30.5 132.5t-80.5 42.5t-80.5 -42t-30.5 -133q0 -90 30.5 -132t80.5 -42q111 0 111 174zM359 697l-69 -126h-85l54 126h100z" />
    <glyph glyph-name="ocircumflex" unicode="&#xf4;" horiz-adv-x="502" 
d="M452 235q0 -124 -55.5 -184.5t-145.5 -60.5q-89 0 -145 60.5t-56 184.5q0 125 56 185t145 60t145 -60.5t56 -184.5zM362 235q0 90 -30.5 132.5t-80.5 42.5t-80.5 -42t-30.5 -133q0 -90 30.5 -132t80.5 -42q111 0 111 174zM400 571h-99l-50 69l-52 -69h-97l95 126h108z
" />
    <glyph glyph-name="otilde" unicode="&#xf5;" horiz-adv-x="502" 
d="M452 235q0 -124 -55.5 -184.5t-145.5 -60.5q-89 0 -145 60.5t-56 184.5q0 125 56 185t145 60t145 -60.5t56 -184.5zM362 235q0 90 -30.5 132.5t-80.5 42.5t-80.5 -42t-30.5 -133q0 -90 30.5 -132t80.5 -42q111 0 111 174zM378 648q-10 -33 -30 -54t-48 -21q-24 0 -55 12
t-44 12q-28 0 -40 -24l-46 29q10 33 31.5 54t50.5 21q27 0 56.5 -12t42.5 -12q23 0 36 23z" />
    <glyph glyph-name="odieresis" unicode="&#xf6;" horiz-adv-x="502" 
d="M452 235q0 -124 -55.5 -184.5t-145.5 -60.5q-89 0 -145 60.5t-56 184.5q0 125 56 185t145 60t145 -60.5t56 -184.5zM362 235q0 90 -30.5 132.5t-80.5 42.5t-80.5 -42t-30.5 -133q0 -90 30.5 -132t80.5 -42q111 0 111 174zM374 582h-85v85h85v-85zM214 582h-85v85h85v-85z
" />
    <glyph glyph-name="divide" unicode="&#xf7;" horiz-adv-x="470" 
d="M410 267h-350v80h350v-80zM285 417h-100v100h100v-100zM285 97h-100v100h100v-100z" />
    <glyph glyph-name="oslash" unicode="&#xf8;" horiz-adv-x="502" 
d="M452 235q0 -120 -56.5 -182.5t-144.5 -62.5q-53 0 -97 24l-44 -76l-46 26l47 83q-61 64 -61 188q0 120 56.5 182.5t144.5 62.5q52 0 95 -23l43 75l49 -26l-48 -83q62 -65 62 -188zM362 235q0 68 -17 110l-154 -267q24 -20 60 -20q111 0 111 177zM310 394q-25 19 -59 19
q-50 0 -80.5 -42.5t-30.5 -135.5q0 -67 17 -109z" />
    <glyph glyph-name="ugrave" unicode="&#xf9;" horiz-adv-x="526" 
d="M506 3q-31 -13 -66 -13q-75 0 -83 72q-68 -72 -147 -72q-120 0 -120 136v279h-70v65h155v-327q0 -39 12 -57t40 -18q52 0 124 64v273h-70v65h155v-382q0 -28 28 -28q18 0 42 9v-66zM303 571h-85l-69 126h100z" />
    <glyph glyph-name="uacute" unicode="&#xfa;" horiz-adv-x="526" 
d="M506 3q-31 -13 -66 -13q-75 0 -83 72q-68 -72 -147 -72q-120 0 -120 136v279h-70v65h155v-327q0 -39 12 -57t40 -18q52 0 124 64v273h-70v65h155v-382q0 -28 28 -28q18 0 42 9v-66zM378 697l-69 -126h-85l54 126h100z" />
    <glyph glyph-name="ucircumflex" unicode="&#xfb;" horiz-adv-x="526" 
d="M506 3q-31 -13 -66 -13q-75 0 -83 72q-68 -72 -147 -72q-120 0 -120 136v279h-70v65h155v-327q0 -39 12 -57t40 -18q52 0 124 64v273h-70v65h155v-382q0 -28 28 -28q18 0 42 9v-66zM412 571h-99l-50 69l-52 -69h-97l95 126h108z" />
    <glyph glyph-name="udieresis" unicode="&#xfc;" horiz-adv-x="526" 
d="M506 3q-31 -13 -66 -13q-75 0 -83 72q-68 -72 -147 -72q-120 0 -120 136v279h-70v65h155v-327q0 -39 12 -57t40 -18q52 0 124 64v273h-70v65h155v-382q0 -28 28 -28q18 0 42 9v-66zM386 582h-85v85h85v-85zM226 582h-85v85h85v-85z" />
    <glyph glyph-name="yacute" unicode="&#xfd;" horiz-adv-x="500" 
d="M480 405h-52l-120 -376q-14 -45 -25.5 -73t-32 -61.5t-45 -53t-63.5 -34t-89 -17.5l-3 68q118 11 155 128l10 31l-140 388h-55v65h200v-65h-54l94 -283l98 348h122v-65zM374 697l-69 -126h-85l54 126h100z" />
    <glyph glyph-name="thorn" unicode="&#xfe;" horiz-adv-x="516" 
d="M466 242q0 -252 -179 -252q-62 0 -112 40v-165h105v-65h-260v65h70v767h-70v65h155v-268q51 51 123 51q74 0 121 -57.5t47 -180.5zM376 243q0 93 -27 127.5t-73 34.5q-45 0 -101 -51v-252q57 -37 106 -37q44 0 69.5 38t25.5 140z" />
    <glyph glyph-name="ydieresis" unicode="&#xff;" horiz-adv-x="500" 
d="M480 405h-52l-120 -376q-14 -45 -25.5 -73t-32 -61.5t-45 -53t-63.5 -34t-89 -17.5l-3 68q118 11 155 128l10 31l-140 388h-55v65h200v-65h-54l94 -283l98 348h122v-65zM373 582h-85v85h85v-85zM213 582h-85v85h85v-85z" />
    <glyph glyph-name="dotlessi" unicode="&#x131;" horiz-adv-x="265" 
d="M245 3q-31 -13 -66 -13q-89 0 -89 90v325h-70v65h155v-382q0 -28 28 -28q15 0 42 9v-66z" />
    <glyph glyph-name="Lslash" unicode="&#x141;" horiz-adv-x="430" 
d="M410 0h-390v65h70v247l-60 -24v69l60 24v221h-70v65h250v-65h-90v-184l147 59v-69l-147 -59v-274h165v106h65v-181z" />
    <glyph glyph-name="lslash" unicode="&#x142;" horiz-adv-x="265" 
d="M245 3q-31 -13 -66 -13q-89 0 -89 90v232l-60 -24v69l60 24v251h-70v65h155v-281l60 24v-69l-60 -24v-259q0 -28 28 -28q15 0 42 9v-66z" />
    <glyph glyph-name="OE" unicode="&#x152;" horiz-adv-x="769" 
d="M719 0h-305q-10 0 -46.5 -5t-59.5 -5q-119 0 -188.5 88t-69.5 255q0 165 71 254.5t187 89.5q21 0 57.5 -5t46.5 -5h307v-177h-65v102h-189v-215h191v-75h-191v-227h189v106h65v-181zM375 77v515q-27 12 -67 12q-70 0 -116.5 -69t-46.5 -202t46 -200t117 -67q42 0 67 11z
" />
    <glyph glyph-name="oe" unicode="&#x153;" horiz-adv-x="774" 
d="M724 205h-271q4 -66 32.5 -104t72.5 -38q51 0 128 47l31 -58q-26 -20 -42 -30t-48.5 -21t-69.5 -11q-105 0 -152 82q-51 -82 -154 -82q-89 0 -145 60.5t-56 184.5q0 125 56 185t145 60q103 0 156 -84q46 84 140 84q90 0 133.5 -67.5t43.5 -207.5zM362 235
q0 90 -30.5 132.5t-80.5 42.5t-80.5 -42t-30.5 -133q0 -90 30.5 -132t80.5 -42q111 0 111 174zM633 268q0 66 -21.5 105t-64.5 39q-85 0 -94 -144h180z" />
    <glyph glyph-name="Scaron" unicode="&#x160;" horiz-adv-x="474" 
d="M434 170q0 -93 -55.5 -136.5t-144.5 -43.5q-24 0 -46.5 2.5t-37 4.5t-35 8l-27 8t-27 10t-21.5 8v150h65v-87q78 -27 129 -27q47 0 76 25.5t29 75.5q0 49 -25.5 74.5t-72.5 45.5l-50 22q-65 28 -105 70t-40 116q0 90 56 135.5t145 45.5t181 -33v-154h-65v92
q-64 19 -116 19q-47 0 -76.5 -24t-29.5 -70q0 -44 24 -68.5t69 -44.5l46 -21q27 -12 43 -20.5t40 -26.5t37.5 -37.5t23.5 -50.5t10 -68zM392 793l-95 -96h-108l-95 96h107l42 -39l40 39h109z" />
    <glyph glyph-name="scaron" unicode="&#x161;" horiz-adv-x="393" 
d="M353 128q0 -72 -43 -105t-113 -33q-84 0 -156 30v146h65v-91q40 -16 85 -16q74 0 74 66q0 31 -16.5 47t-49.5 25l-48 13q-22 6 -38.5 13.5t-34.5 22t-28 39t-10 57.5q0 72 46.5 105t112.5 33q65 0 143 -25v-138h-65v84q-43 10 -77 10q-32 0 -52 -15t-20 -45
q0 -28 14.5 -42t44.5 -22l47 -13q119 -34 119 -146zM348 697l-95 -126h-108l-95 126h97l52 -69l50 69h99z" />
    <glyph glyph-name="Ydieresis" unicode="&#x178;" horiz-adv-x="544" 
d="M524 602h-59l-152 -342v-195h90v-65h-270v65h90v195l-144 342h-59v65h213v-65h-57l95 -243l99 243h-57v65h211v-65zM395 697h-85v85h85v-85zM235 697h-85v85h85v-85z" />
    <glyph glyph-name="Zcaron" unicode="&#x17d;" horiz-adv-x="496" 
d="M466 667l-299 -592h211v86h65v-161h-413l300 592h-212v-82h-65v157h413zM397 793l-95 -96h-108l-95 96h107l42 -39l40 39h109z" />
    <glyph glyph-name="zcaron" unicode="&#x17e;" horiz-adv-x="425" 
d="M395 470l-222 -395h150v91h65v-166h-358l224 395h-138v-78h-65v153h344zM362 697l-95 -126h-108l-95 126h97l52 -69l50 69h99z" />
    <glyph glyph-name="florin" unicode="&#x192;" horiz-adv-x="317" 
d="M307 502h-65v73q-12 2 -27 2q-18 0 -29 -14.5t-11 -43.5v-109h90v-65h-90v-317q0 -107 -30.5 -160t-109.5 -78l-25 53q44 30 62 66.5t18 118.5v317h-60v65h60v107q0 130 120 130q44 0 97 -20v-125z" />
    <glyph glyph-name="uni02BB" unicode="&#x2bb;" horiz-adv-x="240" 
d="M170 457h-100v90l30 130l63 -10l-19 -110h26v-100z" />
    <glyph glyph-name="afii57929" unicode="&#x2bc;" horiz-adv-x="240" 
d="M170 577l-30 -130l-63 10l19 110h-26v100h100v-90z" />
    <glyph glyph-name="circumflex" unicode="&#x2c6;" horiz-adv-x="338" 
d="M318 571h-99l-50 69l-52 -69h-97l95 126h108z" />
    <glyph glyph-name="caron" unicode="&#x2c7;" horiz-adv-x="338" 
d="M318 697l-95 -126h-108l-95 126h97l52 -69l50 69h99z" />
    <glyph glyph-name="breve" unicode="&#x2d8;" horiz-adv-x="280" 
d="M260 677q0 -116 -120 -116t-120 116h63q2 -16 5 -25.5t16 -19.5t36 -10q33 0 43.5 14.5t13.5 40.5h63z" />
    <glyph glyph-name="dotaccent" unicode="&#x2d9;" horiz-adv-x="165" 
d="M125 582h-85v85h85v-85z" />
    <glyph glyph-name="ring" unicode="&#x2da;" horiz-adv-x="244" 
d="M224 659q0 -48 -27.5 -75t-73.5 -27q-47 0 -75 26.5t-28 75.5q0 47 28.5 73.5t74.5 26.5t73.5 -27t27.5 -73zM162 659q0 49 -39 49q-41 0 -41 -50t41 -50q39 0 39 51z" />
    <glyph glyph-name="ogonek" unicode="&#x2db;" horiz-adv-x="234" 
d="M214 -155q-38 -25 -88 -25q-52 0 -79 25.5t-27 71.5q0 34 18 61t42 42l62 -10q-15 -13 -28.5 -34.5t-13.5 -38.5q0 -47 35 -47q26 0 62 17z" />
    <glyph glyph-name="tilde" unicode="&#x2dc;" horiz-adv-x="303" 
d="M283 648q-9 -32 -29 -53.5t-49 -21.5q-24 0 -55 12t-44 12q-28 0 -40 -24l-46 29q9 30 29.5 52.5t52.5 22.5q27 0 56.5 -12t42.5 -12q23 0 36 23z" />
    <glyph glyph-name="hungarumlaut" unicode="&#x2dd;" horiz-adv-x="354" 
d="M334 697l-69 -116h-95l64 116h100zM184 697l-69 -116h-95l64 116h100z" />
    <glyph glyph-name="gravecomb" unicode="&#x300;" 
d="M-210 571h-85l-69 126h100z" />
    <glyph glyph-name="acutecomb" unicode="&#x301;" 
d="M-142 697l-69 -126h-85l54 126h100z" />
    <glyph glyph-name="uni0302" unicode="&#x302;" 
d="M-101 571h-99l-50 69l-52 -69h-97l95 126h108z" />
    <glyph glyph-name="tildecomb" unicode="&#x303;" 
d="M-123 648q-10 -33 -30 -54t-48 -21q-25 0 -56 12t-43 12q-28 0 -40 -24l-46 29q10 33 31.5 54t50.5 21q27 0 56.5 -12t42.5 -12q23 0 36 23z" />
    <glyph glyph-name="uni0304" unicode="&#x304;" 
d="M-19 589h-207v71h207v-71z" />
    <glyph glyph-name="uni0306" unicode="&#x306;" 
d="M-19 687q0 -116 -120 -116t-120 116h63q2 -16 5 -25.5t16 -19.5t36 -10q33 0 43.5 14.5t13.5 40.5h63z" />
    <glyph glyph-name="uni0307" unicode="&#x307;" 
d="M-89 582h-85v85h85v-85z" />
    <glyph glyph-name="uni0308" unicode="&#x308;" 
d="M-39 582h-85v85h85v-85zM-199 582h-85v85h85v-85z" />
    <glyph glyph-name="uni030A" unicode="&#x30a;" 
d="M-19 659q0 -48 -27.5 -75t-73.5 -27q-47 0 -75 26.5t-28 75.5q0 47 28.5 73.5t74.5 26.5t73.5 -27t27.5 -73zM-81 659q0 49 -39 49q-41 0 -41 -50t41 -50q39 0 39 51z" />
    <glyph glyph-name="uni030B" unicode="&#x30b;" 
d="M-19 687l-69 -116h-95l64 116h100zM-169 687l-69 -116h-95l64 116h100z" />
    <glyph glyph-name="uni030C" unicode="&#x30c;" 
d="M-62 697l-95 -126h-108l-95 126h97l52 -69l50 69h99z" />
    <glyph glyph-name="uni0312" unicode="&#x312;" 
d="M-169 672l30 110l63 -10l-21 -100h28v-90h-100v90z" />
    <glyph glyph-name="uni0313" unicode="&#x313;" 
d="M-39 577l-30 -110l-63 10l21 100h-28v90h100v-90z" />
    <glyph glyph-name="uni0326" unicode="&#x326;" 
d="M-39 -120l-30 -110l-63 10l21 100h-28v90h100v-90z" />
    <glyph glyph-name="uni0327" unicode="&#x327;" 
d="M-39 -120l-30 -110l-63 10l21 100h-28v90h100v-90z" />
    <glyph glyph-name="uni0328" unicode="&#x328;" 
d="M-19 -155q-38 -25 -88 -25q-52 0 -79 25.5t-27 71.5q0 34 18 61t42 42l62 -10q-15 -13 -28.5 -34.5t-13.5 -38.5q0 -47 35 -47q26 0 62 17z" />
    <glyph glyph-name="uni0335" unicode="&#x335;" 
d="M-19 200h-207v71h207v-71z" />
    <glyph glyph-name="uni0336" unicode="&#x336;" 
d="M-29 198h-397v75h397v-75z" />
    <glyph glyph-name="uni0394" unicode="&#x394;" horiz-adv-x="590" 
d="M557 0h-525v24l240 608l37 10l248 -618v-24zM453 44l-187 477l-183 -477h370z" />
    <glyph glyph-name="uni03A9" unicode="&#x3a9;" horiz-adv-x="677" 
d="M646 134l-24 -134h-220l-7 18q1 2 26 47t34.5 65.5t27 62t24.5 78.5t7 75q0 137 -50.5 202t-125.5 65q-79 0 -127 -64t-48 -205q0 -55 19.5 -117t39.5 -101.5t58 -107.5l-8 -18h-219l-22 134l24 1q15 -44 28.5 -57t42.5 -13h97q-30 25 -51 47t-48.5 58.5t-42 82.5
t-14.5 98q0 131 77.5 211t195.5 80q119 0 194 -76.5t75 -207.5q0 -61 -28 -121t-57 -94t-74 -78h101q30 0 42.5 12t27.5 58z" />
    <glyph glyph-name="uni03BC" unicode="&#x3bc;" horiz-adv-x="526" 
d="M506 3q-31 -13 -66 -13q-75 0 -83 72q-68 -72 -147 -72q-20 0 -35 4v-129h105v-65h-260v65h70v540h-70v65h155v-327q0 -39 12 -57t40 -18q52 0 124 64v273h-70v65h155v-382q0 -28 28 -28q14 0 42 9v-66z" />
    <glyph glyph-name="pi" unicode="&#x3c0;" horiz-adv-x="525" 
d="M477 437l22 -9q-9 -52 -33 -84q-19 -5 -63 -5q-4 -40 -4 -151q0 -83 6.5 -113.5t34.5 -30.5q21 0 45 27l12 -20q-17 -30 -43.5 -46t-53.5 -16q-40 0 -61.5 26t-21.5 92q0 89 10 235q-29 0 -78 0.5t-65 0.5v-16q0 -96 -13.5 -172.5t-25.5 -107t-22 -42.5q-36 -15 -56 -16
l-6 16q46 58 66 154.5t20 185.5q-29 0 -51.5 -6t-34 -13t-33.5 -23l-13 21q34 45 67 65t88 20q31 0 117 -1.5t134 -1.5q22 0 33 6t23 25z" />
    <glyph glyph-name="uni2007" unicode="&#x2007;" horiz-adv-x="518" 
 />
    <glyph glyph-name="uni2008" unicode="&#x2008;" horiz-adv-x="240" 
 />
    <glyph glyph-name="uni200B" unicode="&#x200b;" horiz-adv-x="0" 
 />
    <glyph glyph-name="endash" unicode="&#x2013;" horiz-adv-x="357" 
d="M327 252h-297v75h297v-75z" />
    <glyph glyph-name="emdash" unicode="&#x2014;" horiz-adv-x="457" 
d="M427 252h-397v75h397v-75z" />
    <glyph glyph-name="quoteleft" unicode="&#x2018;" horiz-adv-x="240" 
d="M170 457h-100v90l30 130l63 -10l-19 -110h26v-100z" />
    <glyph glyph-name="quoteright" unicode="&#x2019;" horiz-adv-x="240" 
d="M170 577l-30 -130l-63 10l19 110h-26v100h100v-90z" />
    <glyph glyph-name="quotesinglbase" unicode="&#x201a;" horiz-adv-x="240" 
d="M170 10l-30 -130l-63 10l19 110h-26v100h100v-90z" />
    <glyph glyph-name="quotedblleft" unicode="&#x201c;" horiz-adv-x="420" 
d="M350 457h-100v90l30 130l63 -10l-19 -110h26v-100zM170 457h-100v90l30 130l63 -10l-19 -110h26v-100z" />
    <glyph glyph-name="quotedblright" unicode="&#x201d;" horiz-adv-x="420" 
d="M350 577l-30 -130l-63 10l19 110h-26v100h100v-90zM170 577l-30 -130l-63 10l19 110h-26v100h100v-90z" />
    <glyph glyph-name="quotedblbase" unicode="&#x201e;" horiz-adv-x="420" 
d="M350 10l-30 -130l-63 10l19 110h-26v100h100v-90zM170 10l-30 -130l-63 10l19 110h-26v100h100v-90z" />
    <glyph glyph-name="dagger" unicode="&#x2020;" horiz-adv-x="460" 
d="M440 395h-166v-395h-90v395h-164v75h164v197h90v-197h166v-75z" />
    <glyph glyph-name="daggerdbl" unicode="&#x2021;" horiz-adv-x="460" 
d="M440 167h-166v-167h-90v167h-164v75h164v183h-164v75h164v167h90v-167h166v-75h-166v-183h166v-75z" />
    <glyph glyph-name="bullet" unicode="&#x2022;" horiz-adv-x="285" 
d="M215 268h-145v145h145v-145z" />
    <glyph glyph-name="ellipsis" unicode="&#x2026;" horiz-adv-x="640" 
d="M570 0h-100v100h100v-100zM370 0h-100v100h100v-100zM170 0h-100v100h100v-100z" />
    <glyph glyph-name="perthousand" unicode="&#x2030;" horiz-adv-x="1082" 
d="M1042 166q0 -84 -38 -130t-105 -46t-105 46t-38 130t38 130t105 46t105 -46t38 -130zM716 166q0 -84 -38 -130t-105 -46t-105 46t-38 130t38 130t105 46t105 -46t38 -130zM326 471q0 -84 -38 -130t-105 -46t-105 46t-38 130t38 130t105 46t105 -46t38 -130zM559 627
l-281 -637l-82 20l281 637zM626 166q0 59 -12.5 86t-40.5 27t-40.5 -27t-12.5 -86t12.5 -85t40.5 -26t40.5 26t12.5 85zM952 166q0 59 -12.5 86t-40.5 27t-40.5 -27t-12.5 -86t12.5 -85t40.5 -26t40.5 26t12.5 85zM236 471q0 59 -12.5 86t-40.5 27t-40.5 -27t-12.5 -86
t12.5 -85t40.5 -26t40.5 26t12.5 85z" />
    <glyph glyph-name="guilsinglleft" unicode="&#x2039;" horiz-adv-x="284" 
d="M244 118l-63 -38l-141 195l141 195l63 -38l-105 -157z" />
    <glyph glyph-name="guilsinglright" unicode="&#x203a;" horiz-adv-x="284" 
d="M244 275l-141 -195l-63 38l105 157l-105 157l63 38z" />
    <glyph glyph-name="fraction" unicode="&#x2044;" horiz-adv-x="306" 
d="M30 3l177 673l69 -14l-178 -672z" />
    <glyph glyph-name="Euro" unicode="&#x20ac;" horiz-adv-x="551" 
d="M511 32q-89 -42 -175 -42q-37 0 -70 10t-66.5 34t-58 71t-34.5 113h-77v68h72q0 5 -1 16t-1 16q0 16 2 42h-72v68h81q24 109 91 164t150 55q79 0 159 -35v-122h-65v63q-47 18 -94 18q-50 0 -91 -35t-59 -108h228v-68h-238q-2 -26 -2 -42q0 -5 1 -16t1 -16h238v-68h-232
q28 -151 145 -151q52 0 103 23v71h65v-129z" />
    <glyph glyph-name="afii61289" unicode="&#x2113;" horiz-adv-x="383" 
d="M348 112l19 -16q-57 -104 -156 -104q-66 0 -96 35.5t-30 134.5v73l-56 -40l-12 23l67 52v119q0 112 9.5 160.5t39.5 83.5q37 45 83 45q41 0 63 -35t22 -87q0 -76 -35.5 -140t-101.5 -131v-83q0 -88 20 -122.5t63 -34.5q54 0 101 67zM164 443v-114q87 103 87 225
q0 43 -11 69t-31 26q-25 0 -35 -45.5t-10 -160.5z" />
    <glyph glyph-name="uni2117" unicode="&#x2117;" horiz-adv-x="768" 
d="M718 334q0 -162 -93.5 -253t-240.5 -91t-240.5 91t-93.5 253t93 252.5t241 90.5t241 -90.5t93 -252.5zM623 334q0 125 -66.5 196t-172.5 71t-172.5 -71t-66.5 -196t66.5 -196.5t172.5 -71.5t172.5 71.5t66.5 196.5zM530 401q0 -65 -40 -93.5t-98 -28.5h-29v-156h-74v401
h103q59 0 98.5 -28.5t39.5 -94.5zM453 403q0 34 -15 47.5t-45 13.5h-30v-125h29q61 0 61 64z" />
    <glyph glyph-name="trademark" unicode="&#x2122;" horiz-adv-x="793" 
d="M743 297h-79v212l-82 -212h-52l-81 211v-211h-80v370h92l95 -244l95 244h92v-370zM309 599h-105v-302h-80v302h-104v68h289v-68z" />
    <glyph glyph-name="Omega" unicode="&#x2126;" horiz-adv-x="677" 
d="M646 134l-24 -134h-220l-7 18q1 2 26 47t34.5 65.5t27 62t24.5 78.5t7 75q0 137 -50.5 202t-125.5 65q-79 0 -127 -64t-48 -205q0 -55 19.5 -117t39.5 -101.5t58 -107.5l-8 -18h-219l-22 134l24 1q15 -44 28.5 -57t42.5 -13h97q-30 25 -51 47t-48.5 58.5t-42 82.5
t-14.5 98q0 131 77.5 211t195.5 80q119 0 194 -76.5t75 -207.5q0 -61 -28 -121t-57 -94t-74 -78h101q30 0 42.5 12t27.5 58z" />
    <glyph glyph-name="estimated" unicode="&#x212e;" horiz-adv-x="791" 
d="M759 309h-590q-5 0 -5 -4v-179q0 -10 8 -20q94 -97 223 -97q141 0 235 109h53q-50 -59 -126 -93t-163 -34q-150 0 -256.5 95.5t-106.5 231.5t106.5 232t256.5 96q155 0 260 -98.5t105 -238.5zM625 332v180q0 13 -8 21q-96 93 -222 93q-128 0 -222 -96q-9 -9 -9 -22v-176
q0 -6 5 -6h453q3 0 3 6z" />
    <glyph glyph-name="arrowleft" unicode="&#x2190;" horiz-adv-x="704" 
d="M654 306h-474l126 -220h-80l-176 260l175 260h80l-125 -220h474v-80z" />
    <glyph glyph-name="arrowup" unicode="&#x2191;" horiz-adv-x="704" 
d="M612 393l-220 125v-474h-80v474l-220 -126v80l260 176l260 -175v-80z" />
    <glyph glyph-name="arrowright" unicode="&#x2192;" horiz-adv-x="704" 
d="M654 346l-176 -260h-80l126 220h-474v80h474l-125 220h80z" />
    <glyph glyph-name="arrowdown" unicode="&#x2193;" horiz-adv-x="704" 
d="M612 219l-260 -175l-260 176v80l220 -126v474h80v-474l220 125v-80z" />
    <glyph glyph-name="uni2196" unicode="&#x2196;" horiz-adv-x="704" 
d="M609 161l-56 -57l-335 335l-67 -244l-56 56l59 309l308 60l56 -57l-244 -67z" />
    <glyph glyph-name="uni2197" unicode="&#x2197;" horiz-adv-x="704" 
d="M609 251l-56 -56l-67 244l-335 -335l-56 57l335 335l-244 67l56 57l308 -60z" />
    <glyph glyph-name="uni2198" unicode="&#x2198;" horiz-adv-x="704" 
d="M609 473l-59 -309l-308 -60l-56 57l244 67l-335 335l56 57l335 -335l67 244z" />
    <glyph glyph-name="uni2199" unicode="&#x2199;" horiz-adv-x="704" 
d="M609 563l-335 -335l244 -67l-56 -57l-308 60l-59 309l56 56l67 -244l335 335z" />
    <glyph glyph-name="partialdiff" unicode="&#x2202;" horiz-adv-x="493" 
d="M244 399q35 0 69.5 -16.5t55.5 -47.5q0 7 4 42.5t4 55.5q0 36 -5.5 71t-19.5 73.5t-45 62.5t-75 24q-62 0 -128 -54q-10 0 -20.5 16t-10.5 33q0 19 46 34t88 15q50 0 91.5 -23t68 -59t45 -82.5t26.5 -92t8 -88.5q0 -64 -13 -126.5t-40 -119t-74.5 -91t-108.5 -34.5
q-77 0 -123.5 49.5t-46.5 135.5q0 97 59.5 159.5t144.5 62.5zM265 361q-68 0 -105 -63.5t-37 -161.5q0 -50 23.5 -82.5t63.5 -32.5q113 0 151 274q-10 23 -36.5 44.5t-59.5 21.5z" />
    <glyph glyph-name="Delta" unicode="&#x2206;" horiz-adv-x="590" 
d="M557 0h-525v24l240 608l37 10l248 -618v-24zM453 44l-187 477l-183 -477h370z" />
    <glyph glyph-name="product" unicode="&#x220f;" horiz-adv-x="638" 
d="M612 636v-25q-59 -4 -72 -14.5t-13 -51.5v-524q0 -47 13 -59t70 -16v-25h-243v25q54 4 65.5 15t11.5 60v553q0 20 -6 25t-27 5h-187q-20 0 -25.5 -4.5t-5.5 -22.5v-556q0 -48 9.5 -59.5t60.5 -15.5v-25h-236v25q56 5 69 16.5t13 58.5v524q0 42 -12.5 52t-72.5 14v25h588z
" />
    <glyph glyph-name="summation" unicode="&#x2211;" horiz-adv-x="514" 
d="M492 94l-40 -176h-426v22l207 315l-202 357v24h421q0 -17 11 -151l-26 -5q-10 58 -31 95q-10 18 -28 24t-68 6h-175l171 -295l-207 -320h237q62 0 82 16.5t48 93.5z" />
    <glyph glyph-name="minus" unicode="&#x2212;" horiz-adv-x="307" 
d="M277 267h-247v80h247v-80z" />
    <glyph glyph-name="uni2219" unicode="&#x2219;" horiz-adv-x="481" 
d="M313 268h-145v145h145v-145z" />
    <glyph glyph-name="radical" unicode="&#x221a;" horiz-adv-x="510" 
d="M495 811l-155 -948l-20 -10l-200 504l-80 -39l-11 31l146 68l154 -400h2l127 803z" />
    <glyph glyph-name="infinity" unicode="&#x221e;" horiz-adv-x="696" 
d="M651 263q0 -67 -41.5 -108t-98.5 -41q-41 0 -79 24t-83 80q-43 -50 -81 -77t-87 -27q-57 0 -97 41t-40 103q0 64 41 105.5t103 41.5q46 0 84.5 -27t79.5 -76q42 50 79.5 76.5t85.5 26.5q59 0 96.5 -39.5t37.5 -102.5zM188 165q25 0 51 16t39.5 30l41.5 45
q-20 26 -30 37.5t-28.5 29t-37.5 25t-41 7.5q-39 0 -62.5 -28t-23.5 -70q0 -39 26 -65.5t65 -26.5zM511 355q-16 0 -32 -6t-32 -19t-25 -21t-25 -26.5t-19 -21.5q46 -54 74 -75t62 -21q38 0 61 28.5t23 64.5q0 44 -24 70.5t-63 26.5z" />
    <glyph glyph-name="integral" unicode="&#x222b;" horiz-adv-x="348" 
d="M149 11q-21 421 -21 449q0 313 145 313q21 0 39 -11.5t18 -32.5q0 -19 -12 -30t-30 -11q-16 0 -27.5 22t-20.5 22q-38 0 -38 -114q0 -24 1 -38q19 -401 19 -433q0 -330 -147 -330q-24 0 -40.5 13.5t-16.5 31.5q0 19 14 31.5t34 12.5q14 0 25.5 -23.5t20.5 -23.5
q38 0 38 121q0 5 -0.5 15t-0.5 16z" />
    <glyph glyph-name="approxequal" unicode="&#x2248;" horiz-adv-x="539" 
d="M87 337l-51 50q60 88 142 88q53 0 107 -30t75 -30q46 0 89 62l54 -49q-56 -92 -141 -92q-37 0 -99.5 31.5t-85.5 31.5q-45 0 -90 -62zM87 174l-51 50q60 88 142 88q53 0 107 -30t75 -30q46 0 89 62l54 -49q-56 -92 -141 -92q-37 0 -99.5 31.5t-85.5 31.5q-45 0 -90 -62z
" />
    <glyph glyph-name="notequal" unicode="&#x2260;" horiz-adv-x="471" 
d="M119 99l40 98h-99v80h131l33 80h-164v80h197l40 98h71l-40 -98h83v-80h-116l-33 -80h149v-80h-181l-40 -98h-71z" />
    <glyph glyph-name="lessequal" unicode="&#x2264;" horiz-adv-x="481" 
d="M386 121l-326 172v70l326 190l35 -69l-271 -154l271 -137zM60 0v68h351v-68h-351z" />
    <glyph glyph-name="greaterequal" unicode="&#x2265;" horiz-adv-x="481" 
d="M95 121l-35 69l271 154l-271 137l35 72l326 -172v-70zM60 0v68h351v-68h-351z" />
    <glyph glyph-name="dotmath" unicode="&#x22c5;" horiz-adv-x="481" 
d="M293 288h-105v105h105v-105z" />
    <glyph glyph-name="filledbox" unicode="&#x25a0;" horiz-adv-x="867" 
d="M767 0h-667v667h667v-667z" />
    <glyph glyph-name="H22073" unicode="&#x25a1;" horiz-adv-x="867" 
d="M767 0h-667v667h667v-667zM677 85v497h-487v-497h487z" />
    <glyph glyph-name="uni25B6" unicode="&#x25b6;" horiz-adv-x="484" 
d="M434 346l-334 -232v462z" />
    <glyph glyph-name="uni25C0" unicode="&#x25c0;" horiz-adv-x="484" 
d="M384 114l-334 232l334 230v-462z" />
    <glyph glyph-name="lozenge" unicode="&#x25ca;" horiz-adv-x="517" 
d="M472 306l-182 -370h-64l-182 370l184 373h62zM411 306l-150 314h-3l-152 -313l152 -315h2z" />
    <glyph glyph-name="H18533" unicode="&#x25cf;" horiz-adv-x="867" 
d="M767 334q0 -147 -92.5 -240.5t-240.5 -93.5q-149 0 -241.5 93.5t-92.5 240.5q0 148 93 240.5t241 92.5q147 0 240 -93t93 -240z" />
    <glyph glyph-name="uni25EF" unicode="&#x25ef;" horiz-adv-x="867" 
d="M767 334q0 -147 -92.5 -240.5t-240.5 -93.5q-149 0 -241.5 93.5t-92.5 240.5q0 148 93 240.5t241 92.5q147 0 240 -93t93 -240zM677 334q0 112 -69 185t-174 73q-106 0 -175 -72.5t-69 -185.5q0 -111 69 -185t175 -74t174.5 73t68.5 186z" />
    <glyph glyph-name="uni2612" unicode="&#x2612;" horiz-adv-x="867" 
d="M767 0h-667v667h667v-667zM677 85v497h-487v-497h487zM602 221l-60 -59l-113 113l-112 -112l-57 56l113 113l-113 112l59 60l113 -113l112 112l56 -57l-112 -111z" />
    <glyph glyph-name="uni26AD" unicode="&#x26ad;" horiz-adv-x="924" 
d="M329 85q-115 0 -182 73.5t-67 175.5q0 104 68.5 176t180.5 72q74 0 134 -35q59 35 133 35q108 0 178 -69t70 -179t-70 -179.5t-178 -69.5q-78 0 -134 34q-59 -34 -133 -34zM347 334q0 94 56 162q-35 16 -74 16q-75 0 -122 -50t-47 -128q0 -77 47 -128t122 -51q42 0 74 16
q-56 68 -56 163zM764 334q0 77 -47 127.5t-121 50.5q-39 0 -74 -16q55 -66 55 -162q0 -97 -55 -163q32 -16 74 -16q74 0 121 51t47 128zM497 334q0 65 -35 113q-35 -46 -35 -113q0 -68 35 -114q35 48 35 114z" />
    <glyph glyph-name="orn001" unicode="&#xea01;" horiz-adv-x="867" 
d="M767 334q0 -147 -92.5 -240.5t-240.5 -93.5q-149 0 -241.5 93.5t-92.5 240.5q0 148 93 240.5t241 92.5q147 0 240 -93t93 -240zM677 334q0 107 -64 179l-358 -359q71 -79 179 -79q106 0 174.5 73t68.5 186z" />
    <glyph glyph-name="orn002" unicode="&#xea02;" horiz-adv-x="867" 
d="M767 334q0 -147 -92.5 -240.5t-240.5 -93.5q-149 0 -241.5 93.5t-92.5 240.5q0 148 93 240.5t241 92.5q147 0 240 -93t93 -240zM677 334q0 112 -69 185t-174 73q-106 0 -175 -72.5t-69 -185.5q0 -86 45 -154l192 192l-156 43l57 56l213 -41l40 -214l-56 -57l-42 157
l-193 -194q63 -47 144 -47q106 0 174.5 73t68.5 186z" />
    <glyph glyph-name="orn003" unicode="&#xea03;" horiz-adv-x="867" 
d="M767 334q0 -147 -92.5 -240.5t-240.5 -93.5q-149 0 -241.5 93.5t-92.5 240.5q0 148 93 240.5t241 92.5q147 0 240 -93t93 -240zM677 334q0 112 -69 185t-174 73q-95 0 -161.5 -59.5t-79.5 -156.5h167v134l254 -174l-254 -176v136h-168q12 -97 79 -159t163 -62
q106 0 174.5 73t68.5 186z" />
    <glyph glyph-name="orn004" unicode="&#xea04;" horiz-adv-x="924" 
d="M844 334q0 -110 -70 -179.5t-178 -69.5q-74 0 -134 35q-60 -35 -133 -35q-109 0 -179 69.5t-70 179.5t70.5 179t178.5 69q73 0 133 -35q60 35 134 35q108 0 178 -69t70 -179zM764 334q0 77 -47 127.5t-121 50.5q-75 0 -122 -50t-47 -128q0 -77 47 -128t122 -51
q74 0 121 51t47 128zM402 171q-55 66 -55 163q0 96 55 162q-35 16 -73 16q-75 0 -122 -50t-47 -128q0 -77 47 -128t122 -51q38 0 73 16z" />
    <glyph glyph-name="orn005" unicode="&#xea05;" horiz-adv-x="867" 
d="M767 0h-667v667h667v-667zM677 85v497h-487v-115h377v-382h110zM477 85v297h-287v-297h287z" />
    <glyph glyph-name="orn006" unicode="&#xea06;" horiz-adv-x="867" 
d="M767 0h-667v667h667v-667zM677 85v497h-487v-196h160v134l254 -174l-254 -176v136h-160v-221h487z" />
    <glyph glyph-name="orn007" unicode="&#xea07;" horiz-adv-x="867" 
d="M767 0h-667v667h667v-667zM677 185v297h-487v-297h487z" />
    <glyph glyph-name="orn008" unicode="&#xea08;" horiz-adv-x="867" 
d="M767 334q0 -147 -92.5 -240.5t-240.5 -93.5q-149 0 -241.5 93.5t-92.5 240.5q0 148 93 240.5t241 92.5q147 0 240 -93t93 -240zM677 333q0 110 -67.5 184.5t-176.5 74.5v-258h-243q0 -111 69 -185t175 -74v258h243z" />
    <glyph glyph-name="orn009" unicode="&#xea09;" horiz-adv-x="867" 
d="M767 334q0 -147 -92.5 -240.5t-240.5 -93.5q-149 0 -241.5 93.5t-92.5 240.5q0 148 93 240.5t241 92.5q147 0 240 -93t93 -240zM677 334q0 112 -69 185t-174 73v-259h-244q0 -111 69.5 -184.5t174.5 -73.5q106 0 174.5 73t68.5 186z" />
    <glyph glyph-name="orn010" unicode="&#xea0a;" horiz-adv-x="867" 
d="M767 334q0 -147 -92.5 -240.5t-240.5 -93.5q-149 0 -241.5 93.5t-92.5 240.5q0 148 93 240.5t241 92.5q147 0 240 -93t93 -240zM677 334q0 101 -57 171t-148 84v-211h121v-80h-121v-122h-80v122h-121v80h121v211q-89 -14 -145.5 -84t-56.5 -171q0 -111 69 -185t175 -74
t174.5 73t68.5 186z" />
    <glyph glyph-name="orn011" unicode="&#xea0b;" horiz-adv-x="867" 
d="M767 334q0 -147 -92.5 -240.5t-240.5 -93.5q-149 0 -241.5 93.5t-92.5 240.5q0 148 93 240.5t241 92.5q147 0 240 -93t93 -240zM677 334q0 112 -69 185t-174 73q-106 0 -175 -72.5t-69 -185.5q0 -111 69 -185t175 -74t174.5 73t68.5 186zM607 224l-60 -59l-113 113
l-112 -112l-57 56l113 113l-113 112l59 60l113 -113l112 112l56 -57l-112 -111z" />
    <glyph glyph-name="orn012" unicode="&#xea0c;" horiz-adv-x="867" 
d="M767 334q0 -147 -92.5 -240.5t-240.5 -93.5q-149 0 -241.5 93.5t-92.5 240.5q0 136 80.5 226.5t211.5 104.5v105h80v-105q132 -13 213.5 -103.5t81.5 -227.5zM677 334q0 101 -57 171t-148 84v-263h-80v263q-89 -14 -145.5 -84t-56.5 -171q0 -111 69 -185t175 -74
t174.5 73t68.5 186z" />
    <glyph glyph-name="orn013" unicode="&#xea0d;" horiz-adv-x="924" 
d="M844 334q0 -110 -70 -179.5t-178 -69.5q-74 0 -134 35q-60 -35 -133 -35q-109 0 -179 69.5t-70 179.5t70.5 179t178.5 69q73 0 133 -35q60 35 134 35q108 0 178 -69t70 -179zM402 171q-55 66 -55 163q0 96 55 162q-35 16 -73 16q-75 0 -122 -50t-47 -128q0 -77 47 -128
t122 -51q38 0 73 16z" />
    <glyph glyph-name="orn014" unicode="&#xea0e;" horiz-adv-x="737" 
d="M637 0h-537v720h347l190 -190v-530zM567 65v445h-150v145h-247v-590h397zM490 296h-190q3 -51 22 -77t50 -26q40 0 91 32l22 -39q-59 -42 -112 -42q-60 0 -98.5 40.5t-38.5 129.5q0 83 36.5 127.5t93.5 44.5q124 0 124 -190zM426 338q0 46 -15 74t-45 28q-60 0 -66 -102
h126z" />
    <glyph glyph-name="orn015" unicode="&#xea0f;" horiz-adv-x="917" 
d="M817 0h-717v307h90v413h347l190 -190v-223h90v-307zM657 307v203h-150v145h-247v-348h397zM727 85v137h-537v-137h537zM587 370h-287v65h287v-65zM467 490h-167v65h167v-65z" />
    <glyph glyph-name="orn016" unicode="&#xea10;" horiz-adv-x="867" 
d="M767 0h-667v667h667v-667zM677 85v497h-487v-497h487zM617 307h-367v65h367v-65zM617 427h-367v65h367v-65zM517 187h-267v65h267v-65z" />
    <glyph glyph-name="fi" unicode="&#xfb01;" horiz-adv-x="526" 
d="M506 3q-31 -13 -66 -13q-89 0 -89 90v325h-176v-340h80v-65h-235v65h70v340h-70v65h70v107q0 130 120 130q39 0 97 -20v-125h-65v73q-12 2 -27 2q-18 0 -29 -14.5t-11 -43.5v-109h261v-382q0 -28 28 -28q16 0 42 9v-66zM436 582h-85v85h85v-85z" />
    <glyph glyph-name="fl" unicode="&#xfb02;" horiz-adv-x="526" 
d="M307 562h-65v73q-12 2 -27 2q-18 0 -29 -14.5t-11 -43.5v-109h80v-65h-80v-340h80v-65h-235v65h70v340h-70v65h70v107q0 130 120 130q42 0 97 -20v-125zM506 3q-31 -13 -66 -13q-89 0 -89 90v617h85v-609q0 -28 28 -28q16 0 42 9v-66z" />
    <glyph glyph-name="uniFEFF" unicode="&#xfeff;" horiz-adv-x="0" 
 />
    <glyph glyph-name="u1F4C4" unicode="&#x1f4c4;" horiz-adv-x="737" 
d="M637 0h-537v720h347l190 -190v-530zM567 65v445h-150v145h-247v-590h397zM497 270h-287v65h287v-65zM497 390h-287v65h287v-65zM397 150h-187v65h187v-65z" />
    <glyph glyph-name="registered.sups" horiz-adv-x="460" 
d="M430 471q0 -98 -56 -152.5t-144 -54.5t-144 54.5t-56 152.5t56 152t144 54t144 -54t56 -152zM363 471q0 72 -36.5 111t-96.5 39t-96.5 -39t-36.5 -111t37 -111.5t96 -39.5q52 0 86 30h-39l-58 94h-14v-94h-44v241h62q35 0 59 -17.5t24 -56.5q0 -47 -42 -65l60 -94
q39 42 39 113zM259 518q0 36 -36 36h-18v-74h18q36 0 36 38z" />
    <glyph glyph-name="numbersign.tf" horiz-adv-x="560" 
d="M520 197h-90v-197h-90v197h-120v-197h-90v197h-90v75h90v123h-90v75h90v197h90v-197h120v197h90v-197h90v-75h-90v-123h90v-75zM340 272v123h-120v-123h120z" />
    <glyph glyph-name="dollar.tf" horiz-adv-x="560" 
d="M472 165q0 -151 -147 -172v-109h-85v108q-77 7 -152 39v150h65v-87q74 -27 121 -27q103 0 103 91q0 43 -21.5 69t-60.5 44l-69 31q-60 27 -96 64.5t-36 104.5q0 74 40 117.5t106 54.5v110h85v-108q66 -6 141 -31v-154h-65v91q-67 20 -111 20q-43 0 -72 -22.5t-29 -63.5
q0 -39 19.5 -60t58.5 -40l67 -32q65 -31 101.5 -72t36.5 -116z" />
    <glyph glyph-name="zero.tf" horiz-adv-x="560" 
d="M499 319q0 -167 -58 -248t-161 -81t-161 81t-58 248q0 166 59 247t160 81t160 -81t59 -247zM404 319q0 255 -124 255t-124 -255q0 -126 32 -191t92 -65q124 0 124 256z" />
    <glyph glyph-name="one.tf" horiz-adv-x="560" 
d="M466 0h-350v65h130v469l-125 -31l-5 56l168 78h52v-572h130v-65z" />
    <glyph glyph-name="two.tf" horiz-adv-x="560" 
d="M471 0h-360q0 101 28.5 161.5t80.5 109.5l67 62q25 23 39 39t26.5 44.5t12.5 61.5q0 46 -27 70.5t-73 24.5q-52 0 -100 -17v-66h-65v119q93 38 168 38q87 0 139.5 -40.5t52.5 -128.5q0 -36 -9 -67t-27.5 -57t-33 -41.5t-38.5 -37.5l-64 -59q-72 -68 -80 -141h198v86h65
v-161z" />
    <glyph glyph-name="three.tf" horiz-adv-x="560" 
d="M455 173q0 -51 -17.5 -88.5t-47 -57t-62 -28.5t-69.5 -9q-79 0 -155 29v142h65v-88q47 -12 90 -12q44 0 72.5 28.5t28.5 89.5q0 121 -127 121h-59v70h59q51 0 84 29t33 81q0 46 -23 71t-62 25q-38 0 -96 -17v-69h-65v122q1 1 15.5 6t19.5 6.5t19.5 6.5t24 6.5t24 4.5
t29 4t30.5 1q80 0 129.5 -36.5t49.5 -120.5q0 -105 -101 -150q111 -37 111 -167z" />
    <glyph glyph-name="four.tf" horiz-adv-x="560" 
d="M510 130h-90v-130h-90v130h-280v75l270 432h100v-432h90v-75zM330 205v315l-197 -315h197z" />
    <glyph glyph-name="five.tf" horiz-adv-x="560" 
d="M458 490h-65v72h-175l-7 -182q32 22 76 22q69 0 117 -47.5t48 -158.5q0 -110 -55 -158t-143 -48q-63 0 -147 29v142h65v-88q39 -13 82 -13q46 0 74.5 32.5t28.5 103.5q0 136 -90 136q-55 0 -103 -46l-44 14l10 337h328v-147z" />
    <glyph glyph-name="six.tf" horiz-adv-x="560" 
d="M490 198q0 -108 -58.5 -158t-150.5 -50q-211 0 -211 294q0 176 69 269.5t181 93.5q70 0 130 -26v-131h-65v78q-27 9 -67 9q-58 0 -100.5 -58t-48.5 -158q52 50 139 50q74 0 128 -51.5t54 -161.5zM395 199q0 142 -108 142q-63 0 -122 -50v-21q0 -103 30.5 -156.5
t86.5 -53.5q113 0 113 139z" />
    <glyph glyph-name="seven.tf" horiz-adv-x="560" 
d="M481 562l-188 -562h-97l199 562h-251v-72h-65v147h402v-75z" />
    <glyph glyph-name="eight.tf" horiz-adv-x="560" 
d="M485 169q0 -87 -52.5 -133t-151.5 -46q-100 0 -153 45.5t-53 132.5q0 112 115 164q-95 54 -95 155q0 76 50 118t138 42q82 0 132 -41.5t50 -113.5q0 -61 -27.5 -94t-72.5 -57q120 -58 120 -172zM390 166q0 48 -32 75t-100 56q-88 -49 -88 -129q0 -50 29.5 -77.5
t82.5 -27.5q51 0 79.5 25.5t28.5 77.5zM370 490q0 84 -89 84q-43 0 -67 -21.5t-24 -62.5t26.5 -65t80.5 -50q73 45 73 115z" />
    <glyph glyph-name="nine.tf" horiz-adv-x="560" 
d="M480 319q0 -172 -51 -250.5t-161 -78.5q-63 0 -131 22v149h65v-91q29 -8 61 -8q120 0 120 228v9q-52 -52 -128 -52t-127 47.5t-51 141.5q0 95 52 153t145 58q206 0 206 -328zM385 370q0 98 -30 152.5t-82 54.5q-50 0 -75.5 -36.5t-25.5 -98.5q0 -125 89 -125q59 0 124 53
z" />
    <glyph glyph-name="cent.tf" horiz-adv-x="560" 
d="M447 30q-54 -29 -103 -37v-109h-85v111q-147 30 -147 235q0 106 41.5 165.5t105.5 77.5v113h85v-108q51 -6 103 -34v-127h-65v80q-34 13 -66 13q-44 0 -79 -43.5t-35 -133.5q0 -92 30.5 -131.5t75.5 -39.5q34 0 74 18v86h65v-136z" />
    <glyph glyph-name="sterling.tf" horiz-adv-x="560" 
d="M460 0h-360v69q70 93 70 256h-70v65h70v77q0 87 44.5 133.5t121.5 46.5q15 0 29 -1t25.5 -3l19.5 -3.5t17 -5l13 -5t11.5 -5t8.5 -4.5v-130h-65v80q-33 7 -59 7q-38 0 -59.5 -28.5t-21.5 -80.5v-78h165v-65h-165q0 -95 -16.5 -150.5t-52.5 -104.5h209v96h65v-166z" />
    <glyph glyph-name="yen.tf" horiz-adv-x="560" 
d="M532 572h-59l-119 -245h127v-70h-160v-70h160v-70h-160v-52h90v-65h-270v65h90v52h-160v70h160v70h-160v70h129l-113 245h-59v65h213v-65h-57l95 -213l99 213h-57v65h211v-65z" />
    <glyph glyph-name="florin.tf" horiz-adv-x="560" 
d="M449 502h-65v73q-12 2 -27 2q-18 0 -29 -14.5t-11 -43.5v-109h120v-65h-120v-317q0 -107 -30.5 -160t-109.5 -78l-25 53q44 30 62 66.5t18 118.5v317h-90v65h90v107q0 130 120 130q39 0 97 -20v-125z" />
    <glyph glyph-name="uni2007.tf" horiz-adv-x="560" 
 />
    <glyph glyph-name="Euro.tf" horiz-adv-x="560" 
d="M520 32q-91 -42 -175 -42q-37 0 -70 10t-66.5 34t-58 71t-34.5 113h-77v68h72q-2 20 -2 32q0 16 2 42h-72v68h81q24 109 91 164t150 55q85 0 159 -35v-122h-65v63q-47 18 -94 18q-50 0 -91 -35t-59 -108h228v-68h-238q-2 -26 -2 -42q0 -12 2 -32h238v-68h-232
q28 -151 145 -151q52 0 103 23v71h65v-129z" />
    <glyph glyph-name="hyphen.case" horiz-adv-x="257" 
d="M227 295h-197v75h197v-75z" />
    <glyph glyph-name="guillemotleft.case" horiz-adv-x="474" 
d="M434 176l-63 -38l-141 195l141 195l63 -38l-105 -157zM244 176l-63 -38l-141 195l141 195l63 -38l-105 -157z" />
    <glyph glyph-name="uni00AD.case" horiz-adv-x="257" 
d="M227 295h-197v75h197v-75z" />
    <glyph glyph-name="guillemotright.case" horiz-adv-x="474" 
d="M434 333l-141 -195l-63 38l105 157l-105 157l63 38zM244 333l-141 -195l-63 38l105 157l-105 157l63 38z" />
    <glyph glyph-name="gravecomb.case" 
d="M-278 697h-85l-59 96h100z" />
    <glyph glyph-name="acutecomb.case" 
d="M-220 793l-59 -96h-85l44 96h100z" />
    <glyph glyph-name="uni0302.case" 
d="M-168 697h-109l-40 39l-42 -39h-107l95 96h108z" />
    <glyph glyph-name="tildecomb.case" 
d="M-185 772q-10 -33 -30 -54t-48 -21q-25 0 -56 12t-43 12q-28 0 -40 -24l-46 29q10 33 31.5 54t50.5 21q27 0 56.5 -12t42.5 -12q23 0 36 23z" />
    <glyph glyph-name="uni0304.case" 
d="M-19 710h-207v71h207v-71z" />
    <glyph glyph-name="uni0306.case" 
d="M-19 813q0 -116 -120 -116t-120 116h63q2 -16 5 -25.5t16 -19.5t36 -10q33 0 43.5 14.5t13.5 40.5h63z" />
    <glyph glyph-name="uni0307.case" 
d="M-39 697h-85v85h85v-85z" />
    <glyph glyph-name="uni0308.case" 
d="M-39 697h-85v85h85v-85zM-199 697h-85v85h85v-85z" />
    <glyph glyph-name="uni030A.case" 
d="M-19 799q0 -48 -27.5 -75t-73.5 -27q-47 0 -75 26.5t-28 75.5q0 47 28.5 73.5t74.5 26.5t73.5 -27t27.5 -73zM-81 799q0 49 -39 49q-41 0 -41 -50t41 -50q39 0 39 51z" />
    <glyph glyph-name="uni030B.case" 
d="M-19 813l-69 -116h-95l64 116h100zM-169 813l-69 -116h-95l64 116h100z" />
    <glyph glyph-name="uni030C.case" 
d="M-98 793l-95 -96h-108l-95 96h107l42 -39l40 39h109z" />
    <glyph glyph-name="uni0326.case" 
d="M-39 -120l-30 -110l-63 10l21 100h-28v90h100v-90z" />
    <glyph glyph-name="uni0327.case" 
d="M-39 -120l-30 -110l-63 10l21 100h-28v90h100v-90z" />
    <glyph glyph-name="uni0328.case" 
d="M-19 -155q-38 -25 -88 -25q-52 0 -79 25.5t-27 71.5q0 34 18 61t42 42l62 -10q-15 -13 -28.5 -34.5t-13.5 -38.5q0 -47 35 -47q26 0 62 17z" />
    <glyph glyph-name="endash.case" horiz-adv-x="357" 
d="M327 295h-297v75h297v-75z" />
    <glyph glyph-name="emdash.case" horiz-adv-x="457" 
d="M427 295h-397v75h397v-75z" />
    <glyph glyph-name="guilsinglleft.case" horiz-adv-x="284" 
d="M244 176l-63 -38l-141 195l141 195l63 -38l-105 -157z" />
    <glyph glyph-name="guilsinglright.case" horiz-adv-x="284" 
d="M244 333l-141 -195l-63 38l105 157l-105 157l63 38z" />
    <glyph glyph-name="arrowleft.ss01" horiz-adv-x="604" 
d="M554 306h-377l109 -190h-80l-156 230l155 230h80l-108 -190h377v-80z" />
    <glyph glyph-name="arrowright.ss01" horiz-adv-x="604" 
d="M554 346l-156 -230h-80l109 190h-377v80h377l-108 190h80z" />
    <glyph glyph-name="arrowleft.ss02" horiz-adv-x="704" 
d="M654 306h-350v-136l-254 176l254 174v-134h350v-80z" />
    <glyph glyph-name="arrowright.ss02" horiz-adv-x="704" 
d="M654 346l-254 -176v136h-350v80h350v134z" />
    </font>
</defs>
</svg>
